<svg xmlns="http://www.w3.org/2000/svg" width="166" height="40" viewBox="0 0 166 40" fill="none">
<g opacity="0.7">
<path d="M89.3815 31.6103C89.2638 31.4123 88.9348 31.2224 88.5576 31.2224C88.0708 31.2224 87.8381 31.4257 87.8381 31.6825C87.8381 31.9847 88.1938 32.0703 88.6111 32.1185C89.336 32.2067 90.0101 32.3967 90.0101 33.2232C90.0101 33.9962 89.3253 34.3279 88.5523 34.3279C87.8434 34.3279 87.2977 34.1086 87.041 33.4746L87.5866 33.1911C87.7418 33.5736 88.143 33.7421 88.5629 33.7421C88.9749 33.7421 89.3627 33.5977 89.3627 33.2205C89.3627 32.8942 89.0203 32.7604 88.5603 32.7096C87.8514 32.624 87.1961 32.4368 87.1961 31.6584C87.1961 30.9442 87.8996 30.6527 88.5389 30.6473C89.0792 30.6473 89.6409 30.8025 89.9031 31.3374L89.3815 31.6103Z" fill="#83D636"/>
<path d="M91.1308 31.11C91.1308 31.5808 90.4166 31.5808 90.4166 31.11C90.4166 30.6393 91.1308 30.6393 91.1308 31.11ZM90.4701 31.7895V34.245H91.0746V31.7895H90.4701Z" fill="#83D636"/>
<path d="M93.2467 34.2423V32.9343C93.2467 32.6106 93.0782 32.3191 92.7465 32.3191C92.4201 32.3191 92.2249 32.6106 92.2249 32.9343V34.2423H91.6204V31.7921H92.1821L92.2276 32.089C92.356 31.8403 92.6395 31.752 92.8722 31.752C93.1638 31.752 93.458 31.8697 93.5971 32.2094C93.8164 31.8617 94.0973 31.7627 94.4156 31.7627C95.1084 31.7627 95.4508 32.188 95.4508 32.9236V34.2423H94.8462V32.9236C94.8462 32.5999 94.7125 32.3297 94.3862 32.3297C94.0598 32.3297 93.8566 32.6133 93.8566 32.9343V34.2423H93.2467Z" fill="#83D636"/>
<path d="M96.0151 35.2641V31.7974H96.5795L96.6196 32.1345C96.8095 31.8616 97.1359 31.744 97.414 31.744C98.1683 31.744 98.6685 32.303 98.6685 33.0225C98.6685 33.7367 98.2165 34.3011 97.4328 34.3011C97.176 34.3011 96.7935 34.2209 96.6196 33.9534V35.2614H96.0151V35.2641ZM98.0613 33.0225C98.0613 32.64 97.8046 32.3271 97.3659 32.3271C96.9272 32.3271 96.6704 32.64 96.6704 33.0225C96.6704 33.405 96.954 33.718 97.3659 33.718C97.7778 33.718 98.0613 33.405 98.0613 33.0225Z" fill="#83D636"/>
<path d="M99.7118 30.7784V34.245H99.1126V30.7784H99.7118Z" fill="#83D636"/>
<path d="M100.902 31.11C100.902 31.5808 100.188 31.5808 100.188 31.11C100.188 30.6393 100.902 30.6393 100.902 31.11ZM100.241 31.7895V34.245H100.846V31.7895H100.241Z" fill="#83D636"/>
<path d="M101.592 34.2423V32.3619H101.135V31.8323H101.592V31.6691C101.592 31.0138 102.034 30.7115 102.526 30.7115C102.74 30.7115 102.962 30.781 103.16 30.9094L102.938 31.3615C102.809 31.2759 102.689 31.2331 102.566 31.2331C102.357 31.2331 102.199 31.3722 102.199 31.6691V31.8323H102.919V32.3619H102.199V34.2423H101.592Z" fill="#83D636"/>
<path d="M105.856 31.7975L104.363 35.2641H103.7L104.157 34.2021L103.181 31.7975H103.885L104.256 32.854L104.489 33.5441L104.743 32.8701L105.19 31.8001H105.856V31.7975Z" fill="#83D636"/>
<path d="M108.681 32.204L109.603 30.7703H110.392V30.7997L109.01 32.8086V34.2423H108.354V32.8086L107.019 30.7997V30.7703H107.798L108.681 32.204Z" fill="#83D636"/>
<path d="M112.495 33.0225C112.495 33.726 112.013 34.2958 111.222 34.2958C110.427 34.2958 109.951 33.726 109.951 33.0225C109.951 32.3244 110.438 31.7493 111.216 31.7493C111.992 31.7493 112.495 32.3244 112.495 33.0225ZM110.556 33.0225C110.556 33.3943 110.778 33.7421 111.219 33.7421C111.66 33.7421 111.882 33.3943 111.882 33.0225C111.882 32.6561 111.626 32.2976 111.219 32.2976C110.783 32.3003 110.556 32.6561 110.556 33.0225Z" fill="#83D636"/>
<path d="M113.53 31.7975V33.076C113.53 33.4478 113.733 33.7314 114.121 33.7314C114.493 33.7314 114.747 33.4184 114.747 33.0466V31.7975H115.346V34.2476H114.806L114.766 33.916C114.512 34.1647 114.279 34.2824 113.937 34.2824C113.351 34.2824 112.926 33.8411 112.926 33.0814V31.7975H113.53Z" fill="#83D636"/>
<path d="M116.44 31.7975L116.486 32.081C116.676 31.7787 116.927 31.7333 117.176 31.7333C117.43 31.7333 117.671 31.8322 117.805 31.966L117.532 32.4929C117.409 32.3886 117.294 32.3351 117.096 32.3351C116.777 32.3351 116.486 32.5036 116.486 32.9557V34.245H115.881V31.8001H116.44V31.7975Z" fill="#83D636"/>
<path d="M119.078 34.2423V30.7757H121.573V31.4043H119.733V32.3512H121.474V32.9557H119.733V34.2396H119.078V34.2423Z" fill="#83D636"/>
<path d="M122.638 31.11C122.638 31.5808 121.924 31.5808 121.924 31.11C121.924 30.6393 122.638 30.6393 122.638 31.11ZM121.977 31.7895V34.245H122.582V31.7895H121.977Z" fill="#83D636"/>
<path d="M124.928 34.2423V32.9637C124.928 32.5919 124.724 32.3084 124.336 32.3084C123.965 32.3084 123.711 32.6213 123.711 32.9931V34.2423H123.111V31.7921H123.652L123.692 32.1238C123.941 31.8804 124.187 31.7574 124.494 31.7574C125.069 31.7574 125.532 32.188 125.532 32.9584V34.2423H124.928Z" fill="#83D636"/>
<path d="M127.993 31.7975H128.573V34.2423H128.004L127.974 33.8865C127.835 34.1754 127.453 34.3118 127.18 34.3172C126.455 34.3225 125.92 33.8758 125.92 33.0172C125.92 32.1746 126.479 31.7333 127.193 31.7386C127.52 31.7386 127.833 31.8911 127.972 32.1345L127.993 31.7975ZM126.525 33.0172C126.525 33.4826 126.848 33.7608 127.249 33.7608C128.202 33.7608 128.202 32.279 127.249 32.279C126.846 32.279 126.525 32.5518 126.525 33.0172Z" fill="#83D636"/>
<path d="M129.684 30.7784V34.245H129.084V30.7784H129.684Z" fill="#83D636"/>
<path d="M132.722 32.204L133.645 30.7703H134.434V30.7997L133.051 32.8086V34.2423H132.396V32.8086L131.061 30.7997V30.7703H131.839L132.722 32.204Z" fill="#83D636"/>
<path d="M134.522 33.2365C134.562 33.5388 134.825 33.7581 135.25 33.7581C135.472 33.7581 135.766 33.6725 135.905 33.5307L136.293 33.9132C136.036 34.1807 135.614 34.3091 135.242 34.3091C134.399 34.3091 133.899 33.7875 133.899 33.0038C133.899 32.2602 134.405 31.7252 135.199 31.7252C136.018 31.7252 136.528 32.2308 136.435 33.2365H134.522ZM135.849 32.7363C135.809 32.418 135.56 32.2602 135.215 32.2602C134.889 32.2602 134.619 32.418 134.53 32.7363H135.849Z" fill="#83D636"/>
<path d="M138.834 31.7975H139.415V34.2423H138.845L138.815 33.8865C138.676 34.1754 138.294 34.3118 138.021 34.3172C137.296 34.3225 136.761 33.8758 136.761 33.0172C136.761 32.1746 137.32 31.7333 138.034 31.7386C138.361 31.7386 138.674 31.8911 138.813 32.1345L138.834 31.7975ZM137.366 33.0172C137.366 33.4826 137.689 33.7608 138.091 33.7608C139.043 33.7608 139.043 32.279 138.091 32.279C137.689 32.279 137.366 32.5518 137.366 33.0172Z" fill="#83D636"/>
<path d="M140.485 31.7975L140.53 32.081C140.72 31.7787 140.971 31.7333 141.22 31.7333C141.474 31.7333 141.715 31.8322 141.849 31.966L141.576 32.4929C141.453 32.3886 141.338 32.3351 141.14 32.3351C140.822 32.3351 140.53 32.5036 140.53 32.9557V34.245H139.926V31.8001H140.485V31.7975Z" fill="#83D636"/>
<path d="M144.759 33.2205H143.777V34.2423H143.122V30.773C143.668 30.773 144.213 30.7677 144.759 30.7677C146.455 30.7677 146.46 33.2205 144.759 33.2205ZM143.777 32.6213H144.759C145.596 32.6213 145.591 31.3909 144.759 31.3909H143.777V32.6213Z" fill="#83D636"/>
<path d="M146.885 31.7975L146.931 32.081C147.121 31.7787 147.372 31.7333 147.621 31.7333C147.875 31.7333 148.116 31.8322 148.25 31.966L147.977 32.4929C147.854 32.3886 147.739 32.3351 147.541 32.3351C147.223 32.3351 146.931 32.5036 146.931 32.9557V34.245H146.326V31.8001H146.885V31.7975Z" fill="#83D636"/>
<path d="M150.906 33.0225C150.906 33.726 150.424 34.2958 149.633 34.2958C148.838 34.2958 148.362 33.726 148.362 33.0225C148.362 32.3244 148.849 31.7493 149.627 31.7493C150.406 31.7493 150.906 32.3244 150.906 33.0225ZM148.969 33.0225C148.969 33.3943 149.191 33.7421 149.633 33.7421C150.074 33.7421 150.296 33.3943 150.296 33.0225C150.296 32.6561 150.039 32.2976 149.633 32.2976C149.197 32.3003 148.969 32.6561 148.969 33.0225Z" fill="#83D636"/>
<path d="M151.917 31.7895V34.7639C151.917 35.3684 151.655 35.7616 151.104 35.7616C150.925 35.7616 150.737 35.7108 150.563 35.5985L150.783 35.1277C150.887 35.1785 150.986 35.2026 151.074 35.1972C151.272 35.1865 151.318 35.0341 151.318 34.7666V31.7895H151.917ZM151.264 31.1047C151.264 31.5755 151.978 31.5755 151.978 31.1047C151.978 30.6339 151.264 30.6339 151.264 31.1047Z" fill="#83D636"/>
<path d="M152.949 33.2365C152.989 33.5388 153.252 33.7581 153.677 33.7581C153.899 33.7581 154.193 33.6725 154.332 33.5307L154.72 33.9132C154.463 34.1807 154.041 34.3091 153.669 34.3091C152.826 34.3091 152.326 33.7875 152.326 33.0038C152.326 32.2602 152.832 31.7252 153.626 31.7252C154.445 31.7252 154.955 32.2308 154.862 33.2365H152.949ZM154.279 32.7363C154.239 32.418 153.99 32.2602 153.645 32.2602C153.318 32.2602 153.048 32.418 152.96 32.7363H154.279Z" fill="#83D636"/>
<path d="M157.422 33.932C157.138 34.2102 156.841 34.3198 156.48 34.3198C155.771 34.3198 155.18 33.8946 155.18 33.0252C155.18 32.1559 155.771 31.7306 156.48 31.7306C156.828 31.7306 157.095 31.8296 157.363 32.0917L156.98 32.4929C156.836 32.3645 156.657 32.3003 156.491 32.3003C156.084 32.3003 155.787 32.5973 155.787 33.0252C155.787 33.4907 156.106 33.7394 156.483 33.7394C156.675 33.7394 156.871 33.6859 157.018 33.5361L157.422 33.932Z" fill="#83D636"/>
<path d="M158.543 31.11V31.8055H159.217V32.3271H158.537V33.3836C158.537 33.6164 158.666 33.7314 158.856 33.7314C158.949 33.7314 159.059 33.702 159.147 33.6565L159.316 34.1727C159.142 34.2423 158.997 34.2717 158.815 34.2771C158.286 34.2958 157.938 33.9935 157.938 33.3836V32.3271H157.481V31.8055H157.938V31.1769L158.543 31.11Z" fill="#83D636"/>
</g>
<path d="M47.9185 27.5284V7.69168H62.1942V11.2947H51.666V16.714H61.6272V20.1752H51.666V27.5257H47.9185V27.5284Z" fill="#fff"/>
<path d="M78.6259 13.5389L70.0851 33.3756H66.2814L68.8921 27.3037L63.3016 13.5389H67.3326L69.4618 19.5841L70.7966 23.5295L72.2437 19.6697L74.7982 13.5389H78.6259Z" fill="#fff"/>
<path d="M80.4421 33.3756V13.5389H83.676L83.9034 15.4675C84.9813 13.908 86.8537 13.2259 88.4426 13.2259C92.7571 13.2259 95.6219 16.4331 95.6219 20.547C95.6219 24.6342 93.0407 27.8681 88.5549 27.8681C87.0784 27.8681 84.8931 27.4134 83.9007 25.8807V33.3729H80.4421V33.3756ZM92.1606 20.547C92.1606 18.3616 90.6841 16.5748 88.1885 16.5748C85.6902 16.5748 84.2163 18.3616 84.2163 20.547C84.2163 22.7324 85.8346 24.5192 88.1885 24.5192C90.545 24.5218 92.1606 22.7324 92.1606 20.547Z" fill="#fff"/>
<path d="M109.202 14.1193C110.272 14.6971 111.093 15.5049 111.671 16.5454C112.249 17.586 112.538 18.787 112.538 20.1485C112.538 20.5069 112.527 20.7824 112.508 20.9723H99.6529C99.784 22.7324 100.38 24.1233 101.44 25.1451C102.499 26.1669 103.871 26.6778 105.554 26.6778C106.594 26.6778 107.587 26.4692 108.533 26.0546C109.48 25.6373 110.208 25.0889 110.719 24.4095L111.569 25.1184C110.906 25.9502 110.047 26.6082 108.988 27.0897C107.929 27.5712 106.784 27.8146 105.554 27.8146C104.192 27.8146 102.972 27.5016 101.892 26.8784C100.814 26.2552 99.9712 25.3885 99.3667 24.2811C98.7622 23.1737 98.4572 21.9219 98.4572 20.5203C98.4572 19.1213 98.7542 17.8722 99.3507 16.7755C99.9471 15.6788 100.779 14.8175 101.849 14.1942C102.919 13.571 104.133 13.258 105.495 13.258C106.899 13.2554 108.135 13.5443 109.202 14.1193ZM101.442 15.8794C100.383 16.8905 99.7867 18.2199 99.6556 19.8676H111.377C111.377 18.7896 111.125 17.8347 110.625 17.0002C110.122 16.1683 109.432 15.521 108.552 15.0555C107.672 14.5928 106.656 14.3601 105.5 14.3601C103.852 14.3601 102.502 14.8683 101.442 15.8794Z" fill="#fff"/>
<path d="M129.309 13.5095V27.5284H128.175L128.145 24.4068C127.616 25.4474 126.816 26.2659 125.749 26.8624C124.679 27.4588 123.472 27.7558 122.13 27.7558C120.768 27.7558 119.556 27.4482 118.497 26.8329C117.438 26.2177 116.611 25.3618 116.015 24.2651C115.418 23.1684 115.122 21.9192 115.122 20.5203C115.122 19.1213 115.418 17.8722 116.015 16.7755C116.611 15.6788 117.438 14.8228 118.497 14.2076C119.556 13.5924 120.768 13.2848 122.13 13.2848C123.472 13.2848 124.679 13.5871 125.749 14.1942C126.819 14.7988 127.616 15.6226 128.145 16.6631L128.175 13.5122H129.309V13.5095ZM125.265 25.8834C126.163 25.3725 126.864 24.6529 127.364 23.7274C127.865 22.8019 128.116 21.732 128.116 20.5203C128.116 19.3086 127.865 18.2413 127.364 17.3131C126.862 16.3876 126.163 15.6681 125.265 15.1572C124.366 14.6463 123.349 14.3922 122.213 14.3922C121.06 14.3922 120.038 14.649 119.147 15.1572C118.257 15.6681 117.564 16.3876 117.061 17.3131C116.558 18.2413 116.309 19.3086 116.309 20.5203C116.309 21.732 116.561 22.7993 117.061 23.7274C117.561 24.6556 118.257 25.3725 119.147 25.8834C120.035 26.3943 121.057 26.6484 122.213 26.6484C123.349 26.6484 124.366 26.3943 125.265 25.8834Z" fill="#fff"/>
<path d="M135.354 27.0763C134.257 26.6029 133.404 25.9984 132.8 25.2601L133.538 24.4657C134.124 25.129 134.891 25.6587 135.836 26.0545C136.783 26.4531 137.804 26.651 138.901 26.651C140.281 26.651 141.389 26.3916 142.221 25.87C143.052 25.3511 143.47 24.6556 143.47 23.7836C143.47 23.254 143.328 22.818 143.044 22.4783C142.761 22.1386 142.282 21.8443 141.611 21.5982C140.939 21.3522 139.968 21.1061 138.703 20.86C137.323 20.5952 136.242 20.3063 135.469 19.9933C134.693 19.6804 134.134 19.2925 133.795 18.8298C133.455 18.367 133.284 17.7759 133.284 17.0563C133.284 15.8847 133.795 14.9566 134.817 14.2745C135.838 13.5924 137.219 13.2527 138.96 13.2527C140.075 13.2527 141.065 13.4052 141.926 13.7074C142.788 14.0097 143.595 14.4724 144.352 15.0983L143.67 15.9489C142.988 15.4006 142.285 14.9994 141.557 14.7426C140.83 14.4885 139.974 14.3601 138.989 14.3601C137.55 14.3601 136.44 14.5981 135.654 15.0689C134.867 15.5424 134.477 16.2031 134.477 17.0563C134.477 17.5672 134.608 17.9792 134.875 18.2921C135.14 18.6051 135.579 18.8726 136.194 19.0999C136.809 19.3273 137.703 19.5546 138.877 19.782C140.335 20.0468 141.474 20.3464 142.295 20.6754C143.119 21.0071 143.713 21.4217 144.082 21.9246C144.451 22.4274 144.636 23.056 144.636 23.813C144.636 25.006 144.112 25.9663 143.06 26.6938C142.009 27.4214 140.624 27.7852 138.904 27.7852C137.633 27.7852 136.451 27.5471 135.354 27.0763Z" fill="#fff"/>
<path d="M158.013 14.1193C159.083 14.6971 159.904 15.5049 160.482 16.5454C161.06 17.586 161.348 18.787 161.348 20.1485C161.348 20.5069 161.338 20.7824 161.319 20.9723H148.464C148.595 22.7324 149.191 24.1233 150.25 25.1451C151.31 26.1669 152.682 26.6778 154.364 26.6778C155.405 26.6778 156.397 26.4692 157.344 26.0546C158.291 25.6373 159.019 25.0889 159.53 24.4095L160.38 25.1184C159.717 25.9502 158.858 26.6082 157.799 27.0897C156.74 27.5712 155.595 27.8146 154.364 27.8146C153.003 27.8146 151.783 27.5016 150.703 26.8784C149.625 26.2552 148.782 25.3885 148.177 24.2811C147.573 23.1737 147.268 21.9219 147.268 20.5203C147.268 19.1213 147.565 17.8722 148.161 16.7755C148.758 15.6788 149.59 14.8175 150.66 14.1942C151.73 13.571 152.944 13.258 154.306 13.258C155.71 13.2554 156.946 13.5443 158.013 14.1193ZM150.253 15.8794C149.194 16.8905 148.597 18.2199 148.466 19.8676H160.188C160.188 18.7896 159.936 17.8347 159.436 17.0002C158.933 16.1683 158.243 15.521 157.363 15.0555C156.483 14.5928 155.466 14.3601 154.311 14.3601C152.666 14.3601 151.312 14.8683 150.253 15.8794Z" fill="#fff"/>
<path d="M166 25.5276C165.987 25.7764 165.997 26.0492 165.936 26.3194C165.864 26.627 165.719 26.8838 165.444 27.0523C165.28 27.1539 165.096 27.2074 164.906 27.2288C164.416 27.2823 163.927 27.285 163.44 27.1994C162.999 27.1245 162.648 26.7634 162.574 26.322C162.483 25.7951 162.477 25.2681 162.571 24.7385C162.659 24.241 162.972 23.9254 163.472 23.8291C163.828 23.7595 164.186 23.7622 164.545 23.7756C164.764 23.7863 164.984 23.7997 165.192 23.8719C165.636 24.0217 165.869 24.3426 165.944 24.7947C165.989 25.0301 166 25.2681 166 25.5276Z" fill="#83D636"/>
<path d="M39.6372 19.9693C39.4713 22.7832 39.6185 25.8887 38.9123 28.9434C38.1072 32.4368 36.4568 35.3363 33.3352 37.2488C31.4735 38.391 29.4005 39.0116 27.2499 39.2496C21.7023 39.8595 16.1519 39.8755 10.6337 38.9286C5.62907 38.0727 1.66226 33.9855 0.795604 28.9755C-0.239565 22.9865 -0.285037 17.0109 0.779555 11.0165C1.77995 5.38329 5.34018 1.78293 11.0162 0.691588C15.0526 -0.0841198 19.113 -0.078773 23.1895 0.0950926C25.6798 0.202087 28.154 0.365255 30.5346 1.17574C35.5607 2.88764 38.2168 6.52813 39.0728 11.6531C39.5195 14.3173 39.6372 17.0002 39.6372 19.9693Z" fill="#fff"/>
<g opacity="0.7">
<path d="M17.805 14.0739H24.4092C27.5335 14.0739 30.0692 11.5408 30.0692 8.4139V8.0314H23.465C20.3408 8.0314 17.805 10.5645 17.805 13.6914V14.0739Z" fill="white"/>
</g>
<path d="M17.805 14.0739H22.684C25.8082 14.0739 28.344 11.5408 28.344 8.4139V8.0314H23.465C20.3408 8.0314 17.805 10.5645 17.805 13.6914V14.0739Z" fill="#83D636"/>
<g opacity="0.7">
<path d="M17.805 24.0618H21.0202C24.1444 24.0618 26.6802 21.5287 26.6802 18.4018V18.0193H23.465C20.3408 18.0193 17.805 20.5524 17.805 23.6793V24.0618Z" fill="#83D636"/>
</g>
<path d="M17.805 24.0618H19.9128C23.037 24.0618 25.5728 21.5287 25.5728 18.4018V18.0193H23.465C20.3408 18.0193 17.805 20.5524 17.805 23.6793V24.0618Z" fill="#0B2833"/>
<g opacity="0.7">
<path d="M11.5085 30.444H11.907C15.165 30.444 17.8077 27.8012 17.8077 24.5432V14.0739H17.4092C14.1512 14.0739 11.5085 16.7166 11.5085 19.9746V30.444Z" fill="white"/>
</g>
<path d="M11.5085 30.444H11.8428C14.5738 30.444 16.7886 28.2292 16.7886 25.4982V14.0739H16.4543C13.7232 14.0739 11.5085 16.2886 11.5085 19.0197V30.444Z" fill="#0B2833"/>
  <!-- Code injected by live-server -->
 </svg>