<svg xmlns="http://www.w3.org/2000/svg" xmlns:xlink="http://www.w3.org/1999/xlink" width="1580" zoomAndPan="magnify" viewBox="0 0 1185 1559.999932" height="2080" preserveAspectRatio="xMidYMid meet" version="1.2"><defs><clipPath id="3989faefb4"><path d="M 304 351.550781 L 794 351.550781 L 794 851 L 304 851 Z M 304 351.550781 "/></clipPath><clipPath id="5668714773"><path d="M 24.457031 380 L 1158.855469 380 L 1158.855469 855 L 24.457031 855 Z M 24.457031 380 "/></clipPath></defs><g id="1361d9cf4f"><g style="fill:#737373;fill-opacity:1;"><g transform="translate(164.267015, 1115.100231)"><path style="stroke:none" d="M 70.03125 0 L 42.5 0 L 42.5 -108.5 L 2.6875 -108.5 L 2.6875 -131.8125 L 109.9375 -131.8125 L 109.9375 -108.5 L 70.03125 -108.5 Z M 70.03125 0 "/></g></g><g style="fill:#737373;fill-opacity:1;"><g transform="translate(288.278491, 1115.100231)"><path style="stroke:none" d="M 12.546875 -97.734375 L 37.21875 -97.734375 L 37.21875 -80.796875 L 37.578125 -80.796875 C 40.554688 -87.191406 44.164062 -92.03125 48.40625 -95.3125 C 52.65625 -98.601562 57.976562 -100.25 64.375 -100.25 C 66.050781 -100.25 67.695312 -100.128906 69.3125 -99.890625 L 69.3125 -73.796875 C 68.113281 -74.035156 65.660156 -74.15625 61.953125 -74.15625 C 53.941406 -74.15625 47.992188 -72.226562 44.109375 -68.375 C 40.222656 -64.519531 38.28125 -58.675781 38.28125 -50.84375 L 38.28125 0 L 12.546875 0 Z M 12.546875 -97.734375 "/></g></g><g style="fill:#737373;fill-opacity:1;"><g transform="translate(372.118762, 1115.100231)"><path style="stroke:none" d="M 66.078125 -1.609375 C 61.242188 12.253906 57.597656 21.488281 55.140625 26.09375 C 52.691406 30.695312 49.703125 34.054688 46.171875 36.171875 C 42.648438 38.296875 36.703125 39.359375 28.328125 39.359375 C 24.023438 39.359375 20.140625 39.148438 16.671875 38.734375 L 16.671875 18.375 C 18.523438 18.613281 20.859375 18.734375 23.671875 18.734375 C 27.378906 18.734375 30.410156 17.957031 32.765625 16.40625 C 35.128906 14.851562 37.117188 10.789062 38.734375 4.21875 L 2.515625 -97.734375 L 31.203125 -97.734375 L 52.09375 -25.734375 L 52.546875 -25.734375 L 72.546875 -97.734375 L 99.71875 -97.734375 Z M 66.078125 -1.609375 "/></g></g><g style="fill:#737373;fill-opacity:1;"><g transform="translate(485.997767, 1115.100231)"><path style="stroke:none" d="M 40.984375 0 L 13.453125 0 L 13.453125 -131.8125 L 40.984375 -131.8125 L 40.984375 -78.1875 L 91.375 -131.8125 L 126.96875 -131.8125 L 73.171875 -77.828125 L 130.109375 0 L 94.59375 0 L 53.890625 -57.84375 L 40.984375 -44.65625 Z M 40.984375 0 "/></g></g><g style="fill:#737373;fill-opacity:1;"><g transform="translate(628.391154, 1115.100231)"><path style="stroke:none" d="M 38.28125 -109.3125 L 12.546875 -109.3125 L 12.546875 -133.15625 L 38.28125 -133.15625 Z M 38.28125 -97.734375 L 38.28125 0 L 12.546875 0 L 12.546875 -97.734375 Z M 38.28125 -97.734375 "/></g></g><g style="fill:#737373;fill-opacity:1;"><g transform="translate(690.621469, 1115.100231)"><path style="stroke:none" d="M 96.484375 -35.59375 C 95.046875 -24.175781 90.472656 -14.957031 82.765625 -7.9375 C 75.054688 -0.914062 64.742188 2.59375 51.828125 2.59375 C 37.242188 2.59375 26.078125 -1.738281 18.328125 -10.40625 C 10.585938 -19.070312 6.71875 -30.96875 6.71875 -46.09375 C 6.71875 -64.019531 10.796875 -77.523438 18.953125 -86.609375 C 27.117188 -95.703125 38.644531 -100.25 53.53125 -100.25 C 65.125 -100.25 74.957031 -97.078125 83.03125 -90.734375 C 91.101562 -84.398438 95.644531 -75.078125 96.65625 -62.765625 L 70.5625 -62.765625 C 69.613281 -68.203125 67.703125 -72.207031 64.828125 -74.78125 C 61.960938 -77.351562 58.195312 -78.640625 53.53125 -78.640625 C 46.957031 -78.640625 41.921875 -76.035156 38.421875 -70.828125 C 34.921875 -65.628906 33.171875 -58.785156 33.171875 -50.296875 C 33.171875 -38.046875 34.945312 -29.691406 38.5 -25.234375 C 42.0625 -20.785156 46.894531 -18.5625 53 -18.5625 C 57.894531 -18.5625 61.925781 -20.25 65.09375 -23.625 C 68.269531 -27 70.035156 -30.988281 70.390625 -35.59375 Z M 96.484375 -35.59375 "/></g></g><g style="fill:#737373;fill-opacity:1;"><g transform="translate(804.500475, 1115.100231)"><path style="stroke:none" d="M 38.28125 0 L 12.546875 0 L 12.546875 -131.8125 L 38.28125 -131.8125 L 38.28125 -60.609375 L 70.5625 -97.734375 L 102.21875 -97.734375 L 67.703125 -59.890625 L 103.125 0 L 72.265625 0 L 48.953125 -41.875 L 38.28125 -30.84375 Z M 38.28125 0 "/></g></g><g style="fill:#737373;fill-opacity:1;"><g transform="translate(918.558817, 1115.100231)"><path style="stroke:none" d="M 67.15625 -67.796875 C 66.675781 -72.035156 65.117188 -75.320312 62.484375 -77.65625 C 59.859375 -79.988281 55.675781 -81.15625 49.9375 -81.15625 C 44.625 -81.15625 40.710938 -80.285156 38.203125 -78.546875 C 35.691406 -76.816406 34.4375 -74.632812 34.4375 -72 C 34.4375 -69.425781 35.492188 -67.4375 37.609375 -66.03125 C 39.734375 -64.632812 47.910156 -62.257812 62.140625 -58.90625 C 76.660156 -55.5 85.894531 -51.539062 89.84375 -47.03125 C 93.789062 -42.519531 95.765625 -36.882812 95.765625 -30.125 C 95.765625 -19.3125 91.953125 -11.035156 84.328125 -5.296875 C 76.710938 0.441406 65.34375 3.3125 50.21875 3.3125 C 36.882812 3.3125 26.4375 0.5625 18.875 -4.9375 C 11.3125 -10.4375 6.960938 -19.070312 5.828125 -30.84375 L 32.1875 -30.84375 C 32.1875 -25.757812 33.816406 -21.976562 37.078125 -19.5 C 40.335938 -17.019531 45.285156 -15.78125 51.921875 -15.78125 C 57.535156 -15.78125 61.835938 -16.628906 64.828125 -18.328125 C 67.816406 -20.035156 69.3125 -22.296875 69.3125 -25.109375 C 69.3125 -27.972656 68.21875 -30.195312 66.03125 -31.78125 C 63.851562 -33.363281 56.457031 -35.503906 43.84375 -38.203125 C 29.800781 -41.191406 20.492188 -45.09375 15.921875 -49.90625 C 11.347656 -54.71875 9.0625 -60.5 9.0625 -67.25 C 9.0625 -76.9375 12.523438 -84.859375 19.453125 -91.015625 C 26.390625 -97.171875 36.644531 -100.25 50.21875 -100.25 C 63.488281 -100.25 73.648438 -97.5 80.703125 -92 C 87.753906 -86.5 91.671875 -78.429688 92.453125 -67.796875 Z M 67.15625 -67.796875 "/></g></g><g style="fill:#737373;fill-opacity:1;"><g transform="translate(212.034019, 1194.668131)"><path style="stroke:none" d="M 4.921875 0 L 8.640625 0 L 8.640625 -10.078125 L 13.28125 -15.046875 L 24.1875 0 L 28.4375 0 L 15.65625 -17.578125 L 26.0625 -28.6875 L 24.015625 -28.6875 L 8.640625 -12.546875 L 8.640625 -28.6875 L 4.921875 -28.6875 Z M 4.921875 0 "/></g></g><g style="fill:#737373;fill-opacity:1;"><g transform="translate(261.544153, 1194.668131)"><path style="stroke:none" d="M 6.5625 -28.6875 L 6.5625 0 L 10.28125 0 L 10.28125 -28.6875 Z M 6.5625 -28.6875 "/></g></g><g style="fill:#737373;fill-opacity:1;"><g transform="translate(298.227832, 1194.668131)"><path style="stroke:none" d="M 29.0625 -5.28125 C 26.269531 -2.664062 22.960938 -1.359375 19.140625 -1.359375 C 17.003906 -1.359375 15.117188 -1.722656 13.484375 -2.453125 C 11.847656 -3.191406 10.484375 -4.175781 9.390625 -5.40625 C 8.296875 -6.632812 7.46875 -8.054688 6.90625 -9.671875 C 6.34375 -11.285156 6.0625 -12.96875 6.0625 -14.71875 C 6.0625 -16.570312 6.351562 -18.269531 6.9375 -19.8125 C 7.53125 -21.351562 8.359375 -22.6875 9.421875 -23.8125 C 10.492188 -24.9375 11.757812 -25.8125 13.21875 -26.4375 C 14.675781 -27.0625 16.265625 -27.375 17.984375 -27.375 C 19.160156 -27.375 20.234375 -27.238281 21.203125 -26.96875 C 22.179688 -26.695312 23.046875 -26.34375 23.796875 -25.90625 C 24.546875 -25.46875 25.160156 -24.96875 25.640625 -24.40625 C 26.117188 -23.84375 26.453125 -23.273438 26.640625 -22.703125 L 29.671875 -22.703125 C 29.265625 -23.628906 28.738281 -24.488281 28.09375 -25.28125 C 27.445312 -26.070312 26.644531 -26.753906 25.6875 -27.328125 C 24.738281 -27.910156 23.617188 -28.363281 22.328125 -28.6875 C 21.046875 -29.019531 19.585938 -29.1875 17.953125 -29.1875 C 15.578125 -29.1875 13.410156 -28.84375 11.453125 -28.15625 C 9.503906 -27.46875 7.832031 -26.488281 6.4375 -25.21875 C 5.039062 -23.945312 3.957031 -22.414062 3.1875 -20.625 C 2.425781 -18.84375 2.046875 -16.84375 2.046875 -14.625 C 2.046875 -12.71875 2.351562 -10.851562 2.96875 -9.03125 C 3.582031 -7.21875 4.53125 -5.609375 5.8125 -4.203125 C 7.101562 -2.796875 8.742188 -1.660156 10.734375 -0.796875 C 12.734375 0.0546875 15.113281 0.484375 17.875 0.484375 C 19.625 0.484375 21.1875 0.320312 22.5625 0 C 23.9375 -0.320312 25.132812 -0.722656 26.15625 -1.203125 C 27.1875 -1.679688 28.039062 -2.191406 28.71875 -2.734375 C 29.40625 -3.285156 29.925781 -3.769531 30.28125 -4.1875 Z M 29.0625 -5.28125 "/></g></g><g style="fill:#737373;fill-opacity:1;"><g transform="translate(349.172211, 1194.668131)"><path style="stroke:none" d="M 4.921875 0 L 8.640625 0 L 8.640625 -10.078125 L 13.28125 -15.046875 L 24.1875 0 L 28.4375 0 L 15.65625 -17.578125 L 26.0625 -28.6875 L 24.015625 -28.6875 L 8.640625 -12.546875 L 8.640625 -28.6875 L 4.921875 -28.6875 Z M 4.921875 0 "/></g></g><g style="fill:#737373;fill-opacity:1;"><g transform="translate(398.682344, 1194.668131)"><path style="stroke:none" d=""/></g></g><g style="fill:#737373;fill-opacity:1;"><g transform="translate(432.866335, 1194.668131)"><path style="stroke:none" d="M 1.234375 -28.6875 L 13.234375 0 L 15.703125 0 L 27.34375 -28.6875 L 25.203125 -28.6875 L 15.65625 -5.078125 L 15.484375 -5.078125 L 5.65625 -28.6875 Z M 1.234375 -28.6875 "/></g></g><g style="fill:#737373;fill-opacity:1;"><g transform="translate(481.270008, 1194.668131)"><path style="stroke:none" d="M 6.5625 -28.6875 L 6.5625 0 L 10.28125 0 L 10.28125 -28.6875 Z M 6.5625 -28.6875 "/></g></g><g style="fill:#737373;fill-opacity:1;"><g transform="translate(517.953687, 1194.668131)"><path style="stroke:none" d="M 4.921875 -28.6875 L 4.921875 0 L 8.640625 0 L 8.640625 -12.671875 L 10.453125 -12.671875 C 11.210938 -12.671875 11.84375 -12.597656 12.34375 -12.453125 C 12.851562 -12.316406 13.3125 -12.082031 13.71875 -11.75 C 14.132812 -11.425781 14.519531 -11.003906 14.875 -10.484375 C 15.226562 -9.972656 15.648438 -9.332031 16.140625 -8.5625 L 19.390625 -3.765625 C 19.796875 -3.140625 20.195312 -2.566406 20.59375 -2.046875 C 20.988281 -1.523438 21.414062 -1.078125 21.875 -0.703125 C 22.34375 -0.335938 22.867188 -0.0507812 23.453125 0.15625 C 24.046875 0.375 24.753906 0.484375 25.578125 0.484375 C 26.171875 0.484375 26.660156 0.457031 27.046875 0.40625 C 27.429688 0.351562 27.816406 0.21875 28.203125 0 L 28.203125 -1.515625 C 28.066406 -1.484375 27.925781 -1.460938 27.78125 -1.453125 C 27.644531 -1.441406 27.507812 -1.4375 27.375 -1.4375 C 26.800781 -1.4375 26.296875 -1.515625 25.859375 -1.671875 C 25.421875 -1.835938 25.007812 -2.078125 24.625 -2.390625 C 24.25 -2.710938 23.882812 -3.097656 23.53125 -3.546875 C 23.175781 -3.992188 22.804688 -4.503906 22.421875 -5.078125 C 21.273438 -6.742188 20.382812 -8.078125 19.75 -9.078125 C 19.125 -10.078125 18.625 -10.847656 18.25 -11.390625 C 17.882812 -11.941406 17.585938 -12.335938 17.359375 -12.578125 C 17.128906 -12.828125 16.847656 -13.035156 16.515625 -13.203125 L 16.109375 -13.40625 L 16.109375 -13.5625 C 17.421875 -13.644531 18.546875 -13.929688 19.484375 -14.421875 C 20.429688 -14.921875 21.203125 -15.535156 21.796875 -16.265625 C 22.398438 -17.003906 22.835938 -17.800781 23.109375 -18.65625 C 23.390625 -19.519531 23.53125 -20.363281 23.53125 -21.1875 C 23.53125 -21.925781 23.382812 -22.734375 23.09375 -23.609375 C 22.8125 -24.484375 22.320312 -25.296875 21.625 -26.046875 C 20.925781 -26.796875 19.972656 -27.421875 18.765625 -27.921875 C 17.566406 -28.429688 16.050781 -28.6875 14.21875 -28.6875 Z M 8.640625 -26.890625 L 12.78125 -26.890625 C 13.820312 -26.890625 14.757812 -26.738281 15.59375 -26.4375 C 16.425781 -26.132812 17.140625 -25.71875 17.734375 -25.1875 C 18.335938 -24.65625 18.796875 -24.019531 19.109375 -23.28125 C 19.429688 -22.539062 19.59375 -21.734375 19.59375 -20.859375 C 19.59375 -20.117188 19.445312 -19.375 19.15625 -18.625 C 18.875 -17.875 18.445312 -17.191406 17.875 -16.578125 C 17.300781 -15.960938 16.597656 -15.460938 15.765625 -15.078125 C 14.929688 -14.703125 13.96875 -14.515625 12.875 -14.515625 L 8.640625 -14.515625 Z M 8.640625 -26.890625 "/></g></g><g style="fill:#737373;fill-opacity:1;"><g transform="translate(567.217935, 1194.668131)"><path style="stroke:none" d="M 15.53125 0 L 15.53125 -26.4375 L 26.515625 -26.4375 L 26.515625 -28.6875 L 0.8125 -28.6875 L 0.8125 -26.4375 L 11.796875 -26.4375 L 11.796875 0 Z M 15.53125 0 "/></g></g><g style="fill:#737373;fill-opacity:1;"><g transform="translate(614.392228, 1194.668131)"><path style="stroke:none" d="M 3.28125 -28.6875 L 3.28125 -11.0625 C 3.28125 -9.945312 3.390625 -8.710938 3.609375 -7.359375 C 3.828125 -6.003906 4.34375 -4.742188 5.15625 -3.578125 C 5.976562 -2.421875 7.195312 -1.453125 8.8125 -0.671875 C 10.425781 0.0976562 12.625 0.484375 15.40625 0.484375 C 17.15625 0.484375 18.707031 0.210938 20.0625 -0.328125 C 21.414062 -0.867188 22.550781 -1.617188 23.46875 -2.578125 C 24.382812 -3.535156 25.070312 -4.648438 25.53125 -5.921875 C 26 -7.191406 26.234375 -8.550781 26.234375 -10 L 26.234375 -28.6875 L 24.421875 -28.6875 L 24.421875 -11.359375 C 24.421875 -10.753906 24.40625 -10.144531 24.375 -9.53125 C 24.351562 -8.914062 24.273438 -8.300781 24.140625 -7.6875 C 24.003906 -7.070312 23.789062 -6.460938 23.5 -5.859375 C 23.21875 -5.253906 22.800781 -4.65625 22.25 -4.0625 C 21.269531 -2.988281 20.164062 -2.257812 18.9375 -1.875 C 17.707031 -1.5 16.421875 -1.3125 15.078125 -1.3125 C 13.929688 -1.3125 12.914062 -1.488281 12.03125 -1.84375 C 11.144531 -2.195312 10.304688 -2.726562 9.515625 -3.4375 C 8.878906 -3.988281 8.394531 -4.535156 8.0625 -5.078125 C 7.738281 -5.628906 7.492188 -6.171875 7.328125 -6.703125 C 7.171875 -7.234375 7.078125 -7.769531 7.046875 -8.3125 C 7.023438 -8.863281 7.015625 -9.410156 7.015625 -9.953125 L 7.015625 -28.6875 Z M 3.28125 -28.6875 "/></g></g><g style="fill:#737373;fill-opacity:1;"><g transform="translate(663.738422, 1194.668131)"><path style="stroke:none" d="M 20.859375 -8.4375 L 24.796875 0 L 28.765625 0 L 15.40625 -28.6875 L 13.359375 -28.6875 L 1.234375 0 L 3.109375 0 L 6.71875 -8.4375 Z M 20 -10.28125 L 7.5 -10.28125 L 13.40625 -24.09375 L 13.5625 -24.09375 Z M 20 -10.28125 "/></g></g><g style="fill:#737373;fill-opacity:1;"><g transform="translate(713.576387, 1194.668131)"><path style="stroke:none" d="M 4.921875 0 L 4.921875 -28.6875 L 8.640625 -28.6875 L 8.640625 -2.25 L 23.4375 -2.25 L 23.4375 0 Z M 4.921875 0 "/></g></g><g style="fill:#737373;fill-opacity:1;"><g transform="translate(758.087053, 1194.668131)"><path style="stroke:none" d="M 4.921875 0 L 4.921875 -28.6875 L 8.640625 -28.6875 L 8.640625 -2.25 L 23.4375 -2.25 L 23.4375 0 Z M 4.921875 0 "/></g></g><g style="fill:#737373;fill-opacity:1;"><g transform="translate(802.597719, 1194.668131)"><path style="stroke:none" d="M 1.234375 -28.6875 L 11.140625 -10.859375 L 11.140625 0 L 14.875 0 L 14.875 -11.234375 L 24.953125 -28.6875 L 22.75 -28.6875 L 13.96875 -13.5625 L 13.8125 -13.5625 L 5.453125 -28.6875 Z M 1.234375 -28.6875 "/></g></g><g style="fill:#737373;fill-opacity:1;"><g transform="translate(848.624624, 1194.668131)"><path style="stroke:none" d=""/></g></g><g style="fill:#737373;fill-opacity:1;"><g transform="translate(882.808615, 1194.668131)"><path style="stroke:none" d="M 2.046875 -14.34375 C 2.046875 -12.8125 2.335938 -11.175781 2.921875 -9.4375 C 3.515625 -7.707031 4.4375 -6.101562 5.6875 -4.625 C 6.945312 -3.15625 8.546875 -1.9375 10.484375 -0.96875 C 12.429688 0 14.753906 0.484375 17.453125 0.484375 C 19.285156 0.484375 20.945312 0.257812 22.4375 -0.1875 C 23.925781 -0.632812 25.265625 -1.238281 26.453125 -2 C 27.640625 -2.769531 28.671875 -3.648438 29.546875 -4.640625 C 30.421875 -5.640625 31.140625 -6.691406 31.703125 -7.796875 C 32.265625 -8.910156 32.6875 -10.023438 32.96875 -11.140625 C 33.257812 -12.265625 33.40625 -13.332031 33.40625 -14.34375 C 33.40625 -15.875 33.085938 -17.503906 32.453125 -19.234375 C 31.828125 -20.972656 30.859375 -22.578125 29.546875 -24.046875 C 28.234375 -25.523438 26.570312 -26.75 24.5625 -27.71875 C 22.5625 -28.695312 20.191406 -29.1875 17.453125 -29.1875 C 14.753906 -29.1875 12.429688 -28.707031 10.484375 -27.75 C 8.546875 -26.789062 6.945312 -25.578125 5.6875 -24.109375 C 4.4375 -22.648438 3.515625 -21.046875 2.921875 -19.296875 C 2.335938 -17.554688 2.046875 -15.90625 2.046875 -14.34375 Z M 6.0625 -14.34375 C 6.0625 -16.257812 6.351562 -18.015625 6.9375 -19.609375 C 7.53125 -21.210938 8.335938 -22.585938 9.359375 -23.734375 C 10.390625 -24.878906 11.597656 -25.769531 12.984375 -26.40625 C 14.378906 -27.050781 15.898438 -27.375 17.546875 -27.375 C 19.148438 -27.375 20.671875 -27.050781 22.109375 -26.40625 C 23.546875 -25.769531 24.800781 -24.878906 25.875 -23.734375 C 26.957031 -22.585938 27.8125 -21.210938 28.4375 -19.609375 C 29.070312 -18.015625 29.390625 -16.257812 29.390625 -14.34375 C 29.390625 -12.425781 29.070312 -10.671875 28.4375 -9.078125 C 27.8125 -7.484375 26.957031 -6.109375 25.875 -4.953125 C 24.800781 -3.804688 23.546875 -2.910156 22.109375 -2.265625 C 20.671875 -1.628906 19.148438 -1.3125 17.546875 -1.3125 C 15.898438 -1.3125 14.378906 -1.628906 12.984375 -2.265625 C 11.597656 -2.910156 10.390625 -3.804688 9.359375 -4.953125 C 8.335938 -6.109375 7.53125 -7.484375 6.9375 -9.078125 C 6.351562 -10.671875 6.0625 -12.425781 6.0625 -14.34375 Z M 6.0625 -14.34375 "/></g></g><g style="fill:#737373;fill-opacity:1;"><g transform="translate(938.096752, 1194.668131)"><path style="stroke:none" d="M 28.03125 -28.6875 L 28.03125 -6.765625 L 27.875 -6.765625 L 5.125 -29.1875 L 4.921875 -29.1875 L 4.921875 0 L 6.796875 0 L 6.796875 -21.921875 L 6.96875 -21.921875 L 29.71875 0.484375 L 29.921875 0.484375 L 29.921875 -28.6875 Z M 28.03125 -28.6875 "/></g></g><g clip-rule="nonzero" clip-path="url(#3989faefb4)"><path style=" stroke:none;fill-rule:nonzero;fill:#737373;fill-opacity:1;" d="M 556.300781 444.652344 C 506.269531 470.621094 457.90625 500.976562 411.773438 535.425781 L 304.238281 351.550781 L 501.957031 351.550781 Z M 652.953125 610.203125 C 609.515625 635.339844 567.253906 663.269531 526.679688 693.675781 C 521.484375 697.570312 516.339844 701.488281 511.242188 705.433594 L 596.1875 850.625 L 793.34375 850.625 Z M 652.953125 610.203125 "/></g><g clip-rule="nonzero" clip-path="url(#5668714773)"><path style=" stroke:none;fill-rule:nonzero;fill:#05d3b0;fill-opacity:1;" d="M 1158.449219 398.714844 C 1117.117188 404.714844 1076.617188 410.9375 1036.78125 418.828125 C 1016.886719 422.96875 997.089844 427.035156 977.5625 431.960938 C 957.960938 436.445312 938.628906 441.90625 919.421875 447.347656 C 842.710938 469.519531 769.039062 498.382812 698.867188 533.613281 C 675.519531 545.324219 652.539062 557.695312 629.972656 570.804688 C 584.746094 596.996094 541.132812 625.90625 499.335938 657.242188 C 495.5625 660.058594 491.816406 662.902344 488.042969 665.792969 C 460.699219 686.714844 434.140625 708.71875 408.613281 731.722656 C 394.035156 744.707031 379.871094 758.183594 366.078125 771.832031 C 359.167969 778.667969 352.433594 785.625 345.816406 792.558594 C 342.484375 796.039062 339.273438 799.539062 336.089844 802.996094 L 327.417969 812.769531 L 290.199219 854.691406 L 256.636719 818.015625 C 214.835938 772.34375 174.238281 725.453125 135.234375 676.890625 C 125.558594 664.664062 115.902344 652.464844 106.347656 640.117188 C 96.890625 627.671875 87.386719 615.296875 78.171875 602.605469 C 59.699219 577.296875 41.546875 551.644531 24.835938 524.523438 C 52.277344 540.71875 78.246094 558.359375 103.921875 576.316406 C 116.8125 585.285156 129.378906 594.519531 141.996094 603.734375 C 154.542969 613.042969 166.9375 622.476562 179.335938 631.910156 C 214.789062 659.25 249.40625 687.476562 283.316406 716.363281 C 286.917969 712.171875 290.566406 708.03125 294.195312 703.914062 C 308.550781 687.746094 323.519531 672.308594 338.90625 657.265625 C 369.164062 627.839844 401.308594 600.425781 434.949219 575.019531 C 435.511719 574.578125 436.125 574.136719 436.6875 573.695312 C 481.621094 539.957031 529.351562 509.824219 579.332031 484.074219 C 605.570312 470.476562 632.421875 458.101562 659.839844 446.980469 C 739.292969 414.785156 823.039062 393.496094 907.515625 384.945312 C 991.992188 376.613281 1077.082031 380.265625 1158.449219 398.714844 Z M 1158.449219 398.714844 "/></g></g></svg>