<svg xmlns="http://www.w3.org/2000/svg" xmlns:xlink="http://www.w3.org/1999/xlink" width="2080" zoomAndPan="magnify" viewBox="0 0 1560 540.000001" height="720" preserveAspectRatio="xMidYMid meet" version="1.2"><defs/><g id="c61259f3e8"><g style="fill:#003b6f;fill-opacity:1;"><g transform="translate(161.12011, 428.587063)"><path style="stroke:none" d="M 83.03125 0 L 40.640625 -49 L 40.640625 0 L 10.859375 0 L 10.859375 -100.9375 L 39.171875 -100.9375 L 81.5625 -51.203125 L 81.5625 -100.9375 L 111.34375 -100.9375 L 111.34375 0 Z M 83.03125 0 "/></g></g><g style="fill:#003b6f;fill-opacity:1;"><g transform="translate(281.251489, 428.587063)"><path style="stroke:none" d="M 10.859375 -100.9375 L 98.140625 -100.9375 L 98.140625 -76.71875 L 43.28125 -76.71875 L 43.28125 -62.78125 L 90.21875 -62.78125 L 90.21875 -39.609375 L 43.28125 -39.609375 L 43.28125 -24.203125 L 99.171875 -24.203125 L 99.171875 0 L 10.859375 0 Z M 10.859375 -100.9375 "/></g></g><g style="fill:#003b6f;fill-opacity:1;"><g transform="translate(385.101273, 428.587063)"><path style="stroke:none" d="M 111.34375 -40.640625 C 111.34375 -26.847656 106.988281 -16.332031 98.28125 -9.09375 C 89.582031 -1.851562 77.210938 1.765625 61.171875 1.765625 C 45.128906 1.765625 32.734375 -1.851562 23.984375 -9.09375 C 15.234375 -16.332031 10.859375 -26.847656 10.859375 -40.640625 L 10.859375 -100.9375 L 43.28125 -100.9375 L 43.28125 -41.078125 C 43.28125 -35.398438 44.796875 -30.875 47.828125 -27.5 C 50.859375 -24.132812 55.257812 -22.453125 61.03125 -22.453125 C 66.800781 -22.453125 71.222656 -24.160156 74.296875 -27.578125 C 77.378906 -31.003906 78.921875 -35.503906 78.921875 -41.078125 L 78.921875 -100.9375 L 111.34375 -100.9375 Z M 111.34375 -40.640625 "/></g></g><g style="fill:#003b6f;fill-opacity:1;"><g transform="translate(505.232652, 428.587063)"><path style="stroke:none" d="M 106.65625 -69.984375 C 106.65625 -63.816406 104.988281 -58.238281 101.65625 -53.25 C 98.332031 -48.257812 93.492188 -44.59375 87.140625 -42.25 L 109.59375 0 L 73.203125 0 L 55.3125 -36.828125 L 43.28125 -36.828125 L 43.28125 0 L 10.859375 0 L 10.859375 -100.9375 L 72.625 -100.9375 C 79.851562 -100.9375 86.035156 -99.539062 91.171875 -96.75 C 96.304688 -93.957031 100.171875 -90.191406 102.765625 -85.453125 C 105.359375 -80.710938 106.65625 -75.554688 106.65625 -69.984375 Z M 73.640625 -68.65625 C 73.640625 -71.300781 72.757812 -73.503906 71 -75.265625 C 69.238281 -77.023438 67.085938 -77.90625 64.546875 -77.90625 L 43.28125 -77.90625 L 43.28125 -59.265625 L 64.546875 -59.265625 C 67.085938 -59.265625 69.238281 -60.171875 71 -61.984375 C 72.757812 -63.796875 73.640625 -66.019531 73.640625 -68.65625 Z M 73.640625 -68.65625 "/></g></g><g style="fill:#003b6f;fill-opacity:1;"><g transform="translate(617.296581, 428.587063)"><path style="stroke:none" d="M 61.03125 -102.6875 C 78.4375 -102.6875 91.882812 -98.238281 101.375 -89.34375 C 110.863281 -80.445312 115.609375 -67.488281 115.609375 -50.46875 C 115.609375 -33.445312 110.863281 -20.484375 101.375 -11.578125 C 91.882812 -2.679688 78.4375 1.765625 61.03125 1.765625 C 43.625 1.765625 30.203125 -2.660156 20.765625 -11.515625 C 11.328125 -20.367188 6.609375 -33.351562 6.609375 -50.46875 C 6.609375 -67.582031 11.328125 -80.5625 20.765625 -89.40625 C 30.203125 -98.257812 43.625 -102.6875 61.03125 -102.6875 Z M 61.03125 -78.484375 C 54.082031 -78.484375 48.796875 -76.378906 45.171875 -72.171875 C 41.554688 -67.972656 39.75 -62.300781 39.75 -55.15625 L 39.75 -45.765625 C 39.75 -38.628906 41.554688 -32.957031 45.171875 -28.75 C 48.796875 -24.550781 54.082031 -22.453125 61.03125 -22.453125 C 67.96875 -22.453125 73.269531 -24.550781 76.9375 -28.75 C 80.613281 -32.957031 82.453125 -38.628906 82.453125 -45.765625 L 82.453125 -55.15625 C 82.453125 -62.300781 80.613281 -67.972656 76.9375 -72.171875 C 73.269531 -76.378906 67.96875 -78.484375 61.03125 -78.484375 Z M 61.03125 -78.484375 "/></g></g><g style="fill:#003b6f;fill-opacity:1;"><g transform="translate(737.42796, 428.587063)"><path style="stroke:none" d="M 106.65625 -69.984375 C 106.65625 -63.816406 104.988281 -58.238281 101.65625 -53.25 C 98.332031 -48.257812 93.492188 -44.59375 87.140625 -42.25 L 109.59375 0 L 73.203125 0 L 55.3125 -36.828125 L 43.28125 -36.828125 L 43.28125 0 L 10.859375 0 L 10.859375 -100.9375 L 72.625 -100.9375 C 79.851562 -100.9375 86.035156 -99.539062 91.171875 -96.75 C 96.304688 -93.957031 100.171875 -90.191406 102.765625 -85.453125 C 105.359375 -80.710938 106.65625 -75.554688 106.65625 -69.984375 Z M 73.640625 -68.65625 C 73.640625 -71.300781 72.757812 -73.503906 71 -75.265625 C 69.238281 -77.023438 67.085938 -77.90625 64.546875 -77.90625 L 43.28125 -77.90625 L 43.28125 -59.265625 L 64.546875 -59.265625 C 67.085938 -59.265625 69.238281 -60.171875 71 -61.984375 C 72.757812 -63.796875 73.640625 -66.019531 73.640625 -68.65625 Z M 73.640625 -68.65625 "/></g></g><g style="fill:#003b6f;fill-opacity:1;"><g transform="translate(849.491888, 428.587063)"><path style="stroke:none" d="M 10.859375 -100.9375 L 98.140625 -100.9375 L 98.140625 -76.71875 L 43.28125 -76.71875 L 43.28125 -62.78125 L 90.21875 -62.78125 L 90.21875 -39.609375 L 43.28125 -39.609375 L 43.28125 -24.203125 L 99.171875 -24.203125 L 99.171875 0 L 10.859375 0 Z M 10.859375 -100.9375 "/></g></g><g style="fill:#003b6f;fill-opacity:1;"><g transform="translate(953.341672, 428.587063)"><path style="stroke:none" d="M 53.25 -102.6875 C 66.164062 -102.6875 76.78125 -100.070312 85.09375 -94.84375 C 93.40625 -89.613281 97.65625 -81.863281 97.84375 -71.59375 L 97.84375 -69.828125 L 67.484375 -69.828125 L 67.484375 -70.421875 C 67.484375 -73.347656 66.40625 -75.789062 64.25 -77.75 C 62.101562 -79.707031 58.828125 -80.6875 54.421875 -80.6875 C 50.117188 -80.6875 46.816406 -80.050781 44.515625 -78.78125 C 42.222656 -77.507812 41.078125 -75.941406 41.078125 -74.078125 C 41.078125 -71.441406 42.640625 -69.488281 45.765625 -68.21875 C 48.898438 -66.945312 53.9375 -65.625 60.875 -64.25 C 69 -62.59375 75.675781 -60.859375 80.90625 -59.046875 C 86.132812 -57.234375 90.703125 -54.273438 94.609375 -50.171875 C 98.523438 -46.066406 100.535156 -40.492188 100.640625 -33.453125 C 100.640625 -21.515625 96.601562 -12.660156 88.53125 -6.890625 C 80.46875 -1.117188 69.6875 1.765625 56.1875 1.765625 C 40.4375 1.765625 28.1875 -0.875 19.4375 -6.15625 C 10.6875 -11.4375 6.3125 -20.78125 6.3125 -34.1875 L 36.96875 -34.1875 C 36.96875 -29.09375 38.285156 -25.691406 40.921875 -23.984375 C 43.566406 -22.273438 47.675781 -21.421875 53.25 -21.421875 C 57.363281 -21.421875 60.765625 -21.859375 63.453125 -22.734375 C 66.140625 -23.617188 67.484375 -25.429688 67.484375 -28.171875 C 67.484375 -30.609375 65.988281 -32.4375 63 -33.65625 C 60.019531 -34.882812 55.15625 -36.1875 48.40625 -37.5625 C 40.195312 -39.320312 33.398438 -41.15625 28.015625 -43.0625 C 22.640625 -44.96875 17.945312 -48.117188 13.9375 -52.515625 C 9.925781 -56.921875 7.921875 -62.890625 7.921875 -70.421875 C 7.921875 -81.472656 12.195312 -89.613281 20.75 -94.84375 C 29.3125 -100.070312 40.144531 -102.6875 53.25 -102.6875 Z M 53.25 -102.6875 "/></g></g><g style="fill:#003b6f;fill-opacity:1;"><g transform="translate(1057.191455, 428.587063)"><path style="stroke:none" d="M 111.34375 -40.640625 C 111.34375 -26.847656 106.988281 -16.332031 98.28125 -9.09375 C 89.582031 -1.851562 77.210938 1.765625 61.171875 1.765625 C 45.128906 1.765625 32.734375 -1.851562 23.984375 -9.09375 C 15.234375 -16.332031 10.859375 -26.847656 10.859375 -40.640625 L 10.859375 -100.9375 L 43.28125 -100.9375 L 43.28125 -41.078125 C 43.28125 -35.398438 44.796875 -30.875 47.828125 -27.5 C 50.859375 -24.132812 55.257812 -22.453125 61.03125 -22.453125 C 66.800781 -22.453125 71.222656 -24.160156 74.296875 -27.578125 C 77.378906 -31.003906 78.921875 -35.503906 78.921875 -41.078125 L 78.921875 -100.9375 L 111.34375 -100.9375 Z M 111.34375 -40.640625 "/></g></g><g style="fill:#003b6f;fill-opacity:1;"><g transform="translate(1177.322778, 428.587063)"><path style="stroke:none" d="M 97.5625 0 L 97.5625 -36.375 C 97.5625 -40.875 97.726562 -45.492188 98.0625 -50.234375 C 98.40625 -54.984375 98.773438 -58.972656 99.171875 -62.203125 C 99.566406 -65.429688 99.8125 -67.484375 99.90625 -68.359375 L 99.3125 -68.359375 L 80.6875 0 L 55.3125 0 L 36.53125 -68.21875 L 35.9375 -68.21875 C 36.039062 -67.332031 36.3125 -65.300781 36.75 -62.125 C 37.1875 -58.945312 37.597656 -54.984375 37.984375 -50.234375 C 38.378906 -45.492188 38.578125 -40.875 38.578125 -36.375 L 38.578125 0 L 8.796875 0 L 8.796875 -100.9375 L 54.578125 -100.9375 L 69.828125 -42.6875 L 70.421875 -42.6875 L 85.53125 -100.9375 L 129.6875 -100.9375 L 129.6875 0 Z M 97.5625 0 "/></g></g><g style="fill:#003b6f;fill-opacity:1;"><g transform="translate(1313.735806, 428.587063)"><path style="stroke:none" d="M 10.859375 -100.9375 L 98.140625 -100.9375 L 98.140625 -76.71875 L 43.28125 -76.71875 L 43.28125 -62.78125 L 90.21875 -62.78125 L 90.21875 -39.609375 L 43.28125 -39.609375 L 43.28125 -24.203125 L 99.171875 -24.203125 L 99.171875 0 L 10.859375 0 Z M 10.859375 -100.9375 "/></g></g><g style="fill:#003b6f;fill-opacity:1;"><g transform="translate(307.761145, 495.402472)"><path style="stroke:none" d="M 18.40625 0.515625 C 15.8125 0.515625 13.351562 0.09375 11.03125 -0.75 C 8.71875 -1.59375 6.773438 -2.9375 5.203125 -4.78125 C 3.628906 -6.632812 2.617188 -9.03125 2.171875 -11.96875 L 7 -11.96875 C 7.414062 -9.863281 8.226562 -8.210938 9.4375 -7.015625 C 10.644531 -5.828125 12.066406 -4.984375 13.703125 -4.484375 C 15.347656 -3.984375 16.984375 -3.734375 18.609375 -3.734375 C 21.367188 -3.734375 23.535156 -4.3125 25.109375 -5.46875 C 26.679688 -6.625 27.46875 -8.378906 27.46875 -10.734375 C 27.46875 -12.148438 27.164062 -13.304688 26.5625 -14.203125 C 25.957031 -15.097656 25.132812 -15.820312 24.09375 -16.375 C 23.0625 -16.925781 21.894531 -17.375 20.59375 -17.71875 C 19.300781 -18.070312 17.945312 -18.398438 16.53125 -18.703125 C 14.976562 -19.015625 13.445312 -19.378906 11.9375 -19.796875 C 10.4375 -20.210938 9.070312 -20.78125 7.84375 -21.5 C 6.625 -22.226562 5.640625 -23.207031 4.890625 -24.4375 C 4.148438 -25.664062 3.78125 -27.242188 3.78125 -29.171875 C 3.78125 -31.421875 4.320312 -33.359375 5.40625 -34.984375 C 6.5 -36.609375 8.015625 -37.859375 9.953125 -38.734375 C 11.890625 -39.617188 14.148438 -40.0625 16.734375 -40.0625 C 18.984375 -40.0625 21.117188 -39.671875 23.140625 -38.890625 C 25.160156 -38.117188 26.882812 -36.898438 28.3125 -35.234375 C 29.75 -33.578125 30.675781 -31.382812 31.09375 -28.65625 L 26.484375 -28.65625 C 26.109375 -30.457031 25.414062 -31.875 24.40625 -32.90625 C 23.40625 -33.945312 22.226562 -34.691406 20.875 -35.140625 C 19.53125 -35.585938 18.132812 -35.8125 16.6875 -35.8125 C 14.03125 -35.8125 12.007812 -35.25 10.625 -34.125 C 9.238281 -33 8.546875 -31.488281 8.546875 -29.59375 C 8.546875 -28 9.019531 -26.757812 9.96875 -25.875 C 10.925781 -25 12.171875 -24.328125 13.703125 -23.859375 C 15.242188 -23.398438 16.894531 -22.976562 18.65625 -22.59375 C 20.28125 -22.25 21.894531 -21.851562 23.5 -21.40625 C 25.113281 -20.957031 26.578125 -20.332031 27.890625 -19.53125 C 29.203125 -18.738281 30.253906 -17.664062 31.046875 -16.3125 C 31.835938 -14.96875 32.234375 -13.210938 32.234375 -11.046875 C 32.234375 -7.554688 31.054688 -4.753906 28.703125 -2.640625 C 26.359375 -0.535156 22.925781 0.515625 18.40625 0.515625 Z M 18.40625 0.515625 "/></g></g><g style="fill:#003b6f;fill-opacity:1;"><g transform="translate(349.972259, 495.402472)"><path style="stroke:none" d="M 8.078125 0 L 3.6875 0 L 3.6875 -28.65625 L 8.078125 -28.65625 L 8.078125 -24.203125 C 9.535156 -26.066406 10.925781 -27.359375 12.25 -28.078125 C 13.582031 -28.804688 15.023438 -29.171875 16.578125 -29.171875 C 18.410156 -29.171875 20.078125 -28.738281 21.578125 -27.875 C 23.085938 -27.019531 24.066406 -25.691406 24.515625 -23.890625 C 25.585938 -25.960938 26.925781 -27.359375 28.53125 -28.078125 C 30.132812 -28.804688 31.816406 -29.171875 33.578125 -29.171875 C 36.828125 -29.171875 39.226562 -28.25 40.78125 -26.40625 C 42.34375 -24.5625 43.125 -21.976562 43.125 -18.65625 L 43.125 0 L 38.71875 0 L 38.71875 -17.625 C 38.71875 -20.113281 38.207031 -22.015625 37.1875 -23.328125 C 36.164062 -24.640625 34.738281 -25.296875 32.90625 -25.296875 C 31.875 -25.296875 30.976562 -25.117188 30.21875 -24.765625 C 29.457031 -24.421875 28.800781 -23.957031 28.25 -23.375 C 27.25 -22.300781 26.554688 -20.910156 26.171875 -19.203125 C 25.796875 -17.492188 25.609375 -15.410156 25.609375 -12.953125 L 25.609375 0 L 21.203125 0 L 21.203125 -17.625 C 21.203125 -20.070312 20.664062 -21.960938 19.59375 -23.296875 C 18.519531 -24.628906 17.101562 -25.296875 15.34375 -25.296875 C 14.375 -25.296875 13.5 -25.113281 12.71875 -24.75 C 11.945312 -24.382812 11.265625 -23.875 10.671875 -23.21875 C 9.804688 -22.25 9.15625 -20.976562 8.71875 -19.40625 C 8.289062 -17.832031 8.078125 -15.679688 8.078125 -12.953125 Z M 8.078125 0 "/></g></g><g style="fill:#003b6f;fill-opacity:1;"><g transform="translate(403.886357, 495.402472)"><path style="stroke:none" d="M 11.8125 0.515625 C 8.945312 0.515625 6.675781 -0.207031 5 -1.65625 C 3.320312 -3.101562 2.484375 -5.09375 2.484375 -7.625 C 2.484375 -10.101562 3.414062 -12.070312 5.28125 -13.53125 C 6.800781 -14.738281 9 -15.632812 11.875 -16.21875 L 22.078125 -18.1875 C 22.078125 -20.4375 21.488281 -22.148438 20.3125 -23.328125 C 19 -24.640625 17.238281 -25.296875 15.03125 -25.296875 C 13.269531 -25.296875 11.738281 -24.828125 10.4375 -23.890625 C 9.144531 -22.960938 8.328125 -21.6875 7.984375 -20.0625 L 3.578125 -20.0625 C 3.921875 -22.0625 4.65625 -23.734375 5.78125 -25.078125 C 6.90625 -26.429688 8.273438 -27.453125 9.890625 -28.140625 C 11.515625 -28.828125 13.242188 -29.171875 15.078125 -29.171875 C 16.734375 -29.171875 18.296875 -28.929688 19.765625 -28.453125 C 21.234375 -27.972656 22.472656 -27.226562 23.484375 -26.21875 C 24.484375 -25.257812 25.1875 -24.171875 25.59375 -22.953125 C 26.007812 -21.742188 26.257812 -20.59375 26.34375 -19.5 C 26.4375 -18.414062 26.484375 -17.546875 26.484375 -16.890625 L 26.484375 0 L 22.078125 0 L 22.078125 -4.515625 C 21.078125 -3.054688 19.921875 -1.929688 18.609375 -1.140625 C 17.640625 -0.554688 16.59375 -0.132812 15.46875 0.125 C 14.34375 0.382812 13.125 0.515625 11.8125 0.515625 Z M 12.328125 -3.375 C 14.097656 -3.375 15.617188 -3.703125 16.890625 -4.359375 C 18.929688 -5.421875 20.3125 -6.800781 21.03125 -8.5 C 21.757812 -10.195312 22.125 -12.234375 22.125 -14.609375 L 12.796875 -12.75 C 10.660156 -12.332031 9.085938 -11.660156 8.078125 -10.734375 C 7.285156 -9.929688 6.890625 -8.925781 6.890625 -7.71875 C 6.890625 -6.40625 7.378906 -5.351562 8.359375 -4.5625 C 9.347656 -3.769531 10.671875 -3.375 12.328125 -3.375 Z M 12.328125 -3.375 "/></g></g><g style="fill:#003b6f;fill-opacity:1;"><g transform="translate(441.07452, 495.402472)"><path style="stroke:none" d="M 8.078125 0 L 3.6875 0 L 3.6875 -28.65625 L 8.078125 -28.65625 L 8.078125 -24.71875 C 9.390625 -26.34375 10.796875 -27.488281 12.296875 -28.15625 C 13.804688 -28.832031 15.53125 -29.171875 17.46875 -29.171875 L 17.671875 -29.171875 L 17.671875 -24.78125 L 16.171875 -24.78125 C 13.859375 -24.78125 12.007812 -24.085938 10.625 -22.703125 C 9.789062 -21.910156 9.15625 -20.890625 8.71875 -19.640625 C 8.289062 -18.398438 8.078125 -16.878906 8.078125 -15.078125 Z M 8.078125 0 "/></g></g><g style="fill:#003b6f;fill-opacity:1;"><g transform="translate(467.232894, 495.402472)"><path style="stroke:none" d="M 16.796875 0 L 12.796875 0 C 11.378906 0 10.160156 -0.195312 9.140625 -0.59375 C 8.128906 -0.988281 7.351562 -1.710938 6.8125 -2.765625 C 6.28125 -3.828125 6.015625 -5.304688 6.015625 -7.203125 L 6.015625 -24.78125 L 1.40625 -24.78125 L 1.40625 -28.65625 L 6.015625 -28.65625 L 6.015625 -39.546875 L 10.421875 -39.546875 L 10.421875 -28.65625 L 16.84375 -28.65625 L 16.84375 -24.78125 L 10.421875 -24.78125 L 10.421875 -8.078125 C 10.421875 -7.253906 10.476562 -6.519531 10.59375 -5.875 C 10.71875 -5.238281 11.019531 -4.75 11.5 -4.40625 C 11.988281 -4.0625 12.769531 -3.890625 13.84375 -3.890625 L 16.796875 -3.890625 Z M 16.796875 0 "/></g></g><g style="fill:#003b6f;fill-opacity:1;"><g transform="translate(493.287705, 495.402472)"><path style="stroke:none" d="M 16.421875 0.515625 C 13.691406 0.515625 11.273438 -0.128906 9.171875 -1.421875 C 7.066406 -2.722656 5.425781 -4.484375 4.25 -6.703125 C 3.070312 -8.929688 2.484375 -11.445312 2.484375 -14.25 C 2.484375 -16.84375 3.019531 -19.28125 4.09375 -21.5625 C 5.164062 -23.84375 6.738281 -25.679688 8.8125 -27.078125 C 10.882812 -28.472656 13.390625 -29.171875 16.328125 -29.171875 C 18.742188 -29.171875 20.992188 -28.632812 23.078125 -27.5625 C 25.171875 -26.5 26.875 -24.910156 28.1875 -22.796875 C 29.5 -20.691406 30.15625 -18.101562 30.15625 -15.03125 L 30.15625 -13.46875 L 6.84375 -13.46875 C 6.90625 -12.46875 7.09375 -11.519531 7.40625 -10.625 C 8.132812 -8.414062 9.289062 -6.65625 10.875 -5.34375 C 12.46875 -4.03125 14.300781 -3.375 16.375 -3.375 C 18.550781 -3.375 20.363281 -3.953125 21.8125 -5.109375 C 23.269531 -6.265625 24.304688 -7.632812 24.921875 -9.21875 L 29.640625 -9.21875 C 29.054688 -7.425781 28.175781 -5.796875 27 -4.328125 C 25.820312 -2.859375 24.359375 -1.679688 22.609375 -0.796875 C 20.867188 0.078125 18.804688 0.515625 16.421875 0.515625 Z M 7.25 -17.359375 L 25.453125 -17.359375 C 25.410156 -17.847656 25.335938 -18.332031 25.234375 -18.8125 C 25.128906 -19.300781 24.992188 -19.75 24.828125 -20.15625 C 24.066406 -21.820312 22.929688 -23.09375 21.421875 -23.96875 C 19.921875 -24.851562 18.253906 -25.296875 16.421875 -25.296875 C 14.523438 -25.296875 12.859375 -24.84375 11.421875 -23.9375 C 9.992188 -23.039062 8.878906 -21.78125 8.078125 -20.15625 C 7.878906 -19.707031 7.707031 -19.238281 7.5625 -18.75 C 7.425781 -18.269531 7.320312 -17.804688 7.25 -17.359375 Z M 7.25 -17.359375 "/></g></g><g style="fill:#003b6f;fill-opacity:1;"><g transform="translate(533.22035, 495.402472)"><path style="stroke:none" d="M 8.078125 0 L 3.6875 0 L 3.6875 -28.65625 L 8.078125 -28.65625 L 8.078125 -24.71875 C 9.390625 -26.34375 10.796875 -27.488281 12.296875 -28.15625 C 13.804688 -28.832031 15.53125 -29.171875 17.46875 -29.171875 L 17.671875 -29.171875 L 17.671875 -24.78125 L 16.171875 -24.78125 C 13.859375 -24.78125 12.007812 -24.085938 10.625 -22.703125 C 9.789062 -21.910156 9.15625 -20.890625 8.71875 -19.640625 C 8.289062 -18.398438 8.078125 -16.878906 8.078125 -15.078125 Z M 8.078125 0 "/></g></g><g style="fill:#003b6f;fill-opacity:1;"><g transform="translate(559.378724, 495.402472)"><path style="stroke:none" d=""/></g></g><g style="fill:#003b6f;fill-opacity:1;"><g transform="translate(581.239098, 495.402472)"><path style="stroke:none" d="M 24.25 -17.5625 L 31.875 0 L 26.640625 0 L 19.640625 -16.6875 L 8.859375 -16.6875 L 8.859375 0 L 4.09375 0 L 4.09375 -39.546875 L 18.8125 -39.546875 C 22.613281 -39.546875 25.65625 -38.613281 27.9375 -36.75 C 30.21875 -34.882812 31.359375 -32.050781 31.359375 -28.25 C 31.359375 -25.582031 30.734375 -23.332031 29.484375 -21.5 C 28.242188 -19.675781 26.5 -18.363281 24.25 -17.5625 Z M 8.859375 -20.9375 L 18.1875 -20.9375 C 20.914062 -20.9375 23.003906 -21.550781 24.453125 -22.78125 C 25.910156 -24.007812 26.640625 -25.78125 26.640625 -28.09375 C 26.640625 -30.375 25.894531 -32.132812 24.40625 -33.375 C 22.925781 -34.625 20.851562 -35.25 18.1875 -35.25 L 8.859375 -35.25 Z M 8.859375 -20.9375 "/></g></g><g style="fill:#003b6f;fill-opacity:1;"><g transform="translate(622.777017, 495.402472)"><path style="stroke:none" d="M 16.421875 0.515625 C 13.691406 0.515625 11.273438 -0.128906 9.171875 -1.421875 C 7.066406 -2.722656 5.425781 -4.484375 4.25 -6.703125 C 3.070312 -8.929688 2.484375 -11.445312 2.484375 -14.25 C 2.484375 -16.84375 3.019531 -19.28125 4.09375 -21.5625 C 5.164062 -23.84375 6.738281 -25.679688 8.8125 -27.078125 C 10.882812 -28.472656 13.390625 -29.171875 16.328125 -29.171875 C 18.742188 -29.171875 20.992188 -28.632812 23.078125 -27.5625 C 25.171875 -26.5 26.875 -24.910156 28.1875 -22.796875 C 29.5 -20.691406 30.15625 -18.101562 30.15625 -15.03125 L 30.15625 -13.46875 L 6.84375 -13.46875 C 6.90625 -12.46875 7.09375 -11.519531 7.40625 -10.625 C 8.132812 -8.414062 9.289062 -6.65625 10.875 -5.34375 C 12.46875 -4.03125 14.300781 -3.375 16.375 -3.375 C 18.550781 -3.375 20.363281 -3.953125 21.8125 -5.109375 C 23.269531 -6.265625 24.304688 -7.632812 24.921875 -9.21875 L 29.640625 -9.21875 C 29.054688 -7.425781 28.175781 -5.796875 27 -4.328125 C 25.820312 -2.859375 24.359375 -1.679688 22.609375 -0.796875 C 20.867188 0.078125 18.804688 0.515625 16.421875 0.515625 Z M 7.25 -17.359375 L 25.453125 -17.359375 C 25.410156 -17.847656 25.335938 -18.332031 25.234375 -18.8125 C 25.128906 -19.300781 24.992188 -19.75 24.828125 -20.15625 C 24.066406 -21.820312 22.929688 -23.09375 21.421875 -23.96875 C 19.921875 -24.851562 18.253906 -25.296875 16.421875 -25.296875 C 14.523438 -25.296875 12.859375 -24.84375 11.421875 -23.9375 C 9.992188 -23.039062 8.878906 -21.78125 8.078125 -20.15625 C 7.878906 -19.707031 7.707031 -19.238281 7.5625 -18.75 C 7.425781 -18.269531 7.320312 -17.804688 7.25 -17.359375 Z M 7.25 -17.359375 "/></g></g><g style="fill:#003b6f;fill-opacity:1;"><g transform="translate(662.709662, 495.402472)"><path style="stroke:none" d="M 15.234375 0.515625 C 11.578125 0.515625 8.613281 -0.351562 6.34375 -2.09375 C 4.082031 -3.84375 2.710938 -6.21875 2.234375 -9.21875 L 6.84375 -9.21875 C 7.21875 -7.5 8.078125 -6.09375 9.421875 -5 C 10.773438 -3.914062 12.734375 -3.375 15.296875 -3.375 C 17.222656 -3.375 18.800781 -3.742188 20.03125 -4.484375 C 21.257812 -5.222656 21.875 -6.320312 21.875 -7.78125 C 21.875 -8.988281 21.492188 -9.921875 20.734375 -10.578125 C 19.972656 -11.234375 18.976562 -11.734375 17.75 -12.078125 C 16.519531 -12.421875 15.195312 -12.734375 13.78125 -13.015625 C 12.539062 -13.253906 11.304688 -13.523438 10.078125 -13.828125 C 8.847656 -14.140625 7.734375 -14.570312 6.734375 -15.125 C 5.734375 -15.6875 4.929688 -16.429688 4.328125 -17.359375 C 3.722656 -18.296875 3.421875 -19.488281 3.421875 -20.9375 C 3.421875 -22.738281 3.878906 -24.25 4.796875 -25.46875 C 5.710938 -26.695312 6.960938 -27.617188 8.546875 -28.234375 C 10.140625 -28.859375 11.90625 -29.171875 13.84375 -29.171875 C 16.945312 -29.171875 19.535156 -28.367188 21.609375 -26.765625 C 23.679688 -25.160156 24.960938 -22.925781 25.453125 -20.0625 L 21.359375 -20.0625 C 20.898438 -21.882812 20.003906 -23.210938 18.671875 -24.046875 C 17.347656 -24.878906 15.738281 -25.296875 13.84375 -25.296875 C 11.9375 -25.296875 10.457031 -24.941406 9.40625 -24.234375 C 8.351562 -23.523438 7.828125 -22.546875 7.828125 -21.296875 C 7.828125 -20.296875 8.179688 -19.507812 8.890625 -18.9375 C 9.597656 -18.375 10.519531 -17.941406 11.65625 -17.640625 C 12.800781 -17.347656 14.03125 -17.066406 15.34375 -16.796875 C 16.625 -16.546875 17.910156 -16.253906 19.203125 -15.921875 C 20.492188 -15.597656 21.675781 -15.144531 22.75 -14.5625 C 23.820312 -13.976562 24.675781 -13.179688 25.3125 -12.171875 C 25.957031 -11.171875 26.28125 -9.859375 26.28125 -8.234375 C 26.28125 -5.609375 25.320312 -3.492188 23.40625 -1.890625 C 21.488281 -0.285156 18.765625 0.515625 15.234375 0.515625 Z M 15.234375 0.515625 "/></g></g><g style="fill:#003b6f;fill-opacity:1;"><g transform="translate(698.913938, 495.402472)"><path style="stroke:none" d="M 13.375 0.515625 C 9.363281 0.515625 6.546875 -0.984375 4.921875 -3.984375 C 4.023438 -5.679688 3.578125 -8.15625 3.578125 -11.40625 L 3.578125 -28.65625 L 7.984375 -28.65625 L 7.984375 -11.40625 C 7.984375 -8.363281 8.535156 -6.21875 9.640625 -4.96875 C 10.609375 -3.90625 12.078125 -3.375 14.046875 -3.375 C 16.222656 -3.375 17.96875 -4.082031 19.28125 -5.5 C 20.207031 -6.5 20.867188 -7.835938 21.265625 -9.515625 C 21.671875 -11.191406 21.875 -13.492188 21.875 -16.421875 L 21.875 -28.65625 L 26.28125 -28.65625 L 26.28125 0 L 21.875 0 L 21.875 -4.453125 C 20.488281 -2.691406 19.128906 -1.421875 17.796875 -0.640625 C 16.472656 0.128906 15 0.515625 13.375 0.515625 Z M 13.375 0.515625 "/></g></g><g style="fill:#003b6f;fill-opacity:1;"><g transform="translate(736.205665, 495.402472)"><path style="stroke:none" d="M 8.078125 0 L 3.6875 0 L 3.6875 -28.65625 L 8.078125 -28.65625 L 8.078125 -24.203125 C 9.535156 -26.066406 10.925781 -27.359375 12.25 -28.078125 C 13.582031 -28.804688 15.023438 -29.171875 16.578125 -29.171875 C 18.410156 -29.171875 20.078125 -28.738281 21.578125 -27.875 C 23.085938 -27.019531 24.066406 -25.691406 24.515625 -23.890625 C 25.585938 -25.960938 26.925781 -27.359375 28.53125 -28.078125 C 30.132812 -28.804688 31.816406 -29.171875 33.578125 -29.171875 C 36.828125 -29.171875 39.226562 -28.25 40.78125 -26.40625 C 42.34375 -24.5625 43.125 -21.976562 43.125 -18.65625 L 43.125 0 L 38.71875 0 L 38.71875 -17.625 C 38.71875 -20.113281 38.207031 -22.015625 37.1875 -23.328125 C 36.164062 -24.640625 34.738281 -25.296875 32.90625 -25.296875 C 31.875 -25.296875 30.976562 -25.117188 30.21875 -24.765625 C 29.457031 -24.421875 28.800781 -23.957031 28.25 -23.375 C 27.25 -22.300781 26.554688 -20.910156 26.171875 -19.203125 C 25.796875 -17.492188 25.609375 -15.410156 25.609375 -12.953125 L 25.609375 0 L 21.203125 0 L 21.203125 -17.625 C 21.203125 -20.070312 20.664062 -21.960938 19.59375 -23.296875 C 18.519531 -24.628906 17.101562 -25.296875 15.34375 -25.296875 C 14.375 -25.296875 13.5 -25.113281 12.71875 -24.75 C 11.945312 -24.382812 11.265625 -23.875 10.671875 -23.21875 C 9.804688 -22.25 9.15625 -20.976562 8.71875 -19.40625 C 8.289062 -17.832031 8.078125 -15.679688 8.078125 -12.953125 Z M 8.078125 0 "/></g></g><g style="fill:#003b6f;fill-opacity:1;"><g transform="translate(790.119763, 495.402472)"><path style="stroke:none" d="M 16.421875 0.515625 C 13.691406 0.515625 11.273438 -0.128906 9.171875 -1.421875 C 7.066406 -2.722656 5.425781 -4.484375 4.25 -6.703125 C 3.070312 -8.929688 2.484375 -11.445312 2.484375 -14.25 C 2.484375 -16.84375 3.019531 -19.28125 4.09375 -21.5625 C 5.164062 -23.84375 6.738281 -25.679688 8.8125 -27.078125 C 10.882812 -28.472656 13.390625 -29.171875 16.328125 -29.171875 C 18.742188 -29.171875 20.992188 -28.632812 23.078125 -27.5625 C 25.171875 -26.5 26.875 -24.910156 28.1875 -22.796875 C 29.5 -20.691406 30.15625 -18.101562 30.15625 -15.03125 L 30.15625 -13.46875 L 6.84375 -13.46875 C 6.90625 -12.46875 7.09375 -11.519531 7.40625 -10.625 C 8.132812 -8.414062 9.289062 -6.65625 10.875 -5.34375 C 12.46875 -4.03125 14.300781 -3.375 16.375 -3.375 C 18.550781 -3.375 20.363281 -3.953125 21.8125 -5.109375 C 23.269531 -6.265625 24.304688 -7.632812 24.921875 -9.21875 L 29.640625 -9.21875 C 29.054688 -7.425781 28.175781 -5.796875 27 -4.328125 C 25.820312 -2.859375 24.359375 -1.679688 22.609375 -0.796875 C 20.867188 0.078125 18.804688 0.515625 16.421875 0.515625 Z M 7.25 -17.359375 L 25.453125 -17.359375 C 25.410156 -17.847656 25.335938 -18.332031 25.234375 -18.8125 C 25.128906 -19.300781 24.992188 -19.75 24.828125 -20.15625 C 24.066406 -21.820312 22.929688 -23.09375 21.421875 -23.96875 C 19.921875 -24.851562 18.253906 -25.296875 16.421875 -25.296875 C 14.523438 -25.296875 12.859375 -24.84375 11.421875 -23.9375 C 9.992188 -23.039062 8.878906 -21.78125 8.078125 -20.15625 C 7.878906 -19.707031 7.707031 -19.238281 7.5625 -18.75 C 7.425781 -18.269531 7.320312 -17.804688 7.25 -17.359375 Z M 7.25 -17.359375 "/></g></g><g style="fill:#003b6f;fill-opacity:1;"><g transform="translate(830.052408, 495.402472)"><path style="stroke:none" d="M 15.234375 0.515625 C 11.578125 0.515625 8.613281 -0.351562 6.34375 -2.09375 C 4.082031 -3.84375 2.710938 -6.21875 2.234375 -9.21875 L 6.84375 -9.21875 C 7.21875 -7.5 8.078125 -6.09375 9.421875 -5 C 10.773438 -3.914062 12.734375 -3.375 15.296875 -3.375 C 17.222656 -3.375 18.800781 -3.742188 20.03125 -4.484375 C 21.257812 -5.222656 21.875 -6.320312 21.875 -7.78125 C 21.875 -8.988281 21.492188 -9.921875 20.734375 -10.578125 C 19.972656 -11.234375 18.976562 -11.734375 17.75 -12.078125 C 16.519531 -12.421875 15.195312 -12.734375 13.78125 -13.015625 C 12.539062 -13.253906 11.304688 -13.523438 10.078125 -13.828125 C 8.847656 -14.140625 7.734375 -14.570312 6.734375 -15.125 C 5.734375 -15.6875 4.929688 -16.429688 4.328125 -17.359375 C 3.722656 -18.296875 3.421875 -19.488281 3.421875 -20.9375 C 3.421875 -22.738281 3.878906 -24.25 4.796875 -25.46875 C 5.710938 -26.695312 6.960938 -27.617188 8.546875 -28.234375 C 10.140625 -28.859375 11.90625 -29.171875 13.84375 -29.171875 C 16.945312 -29.171875 19.535156 -28.367188 21.609375 -26.765625 C 23.679688 -25.160156 24.960938 -22.925781 25.453125 -20.0625 L 21.359375 -20.0625 C 20.898438 -21.882812 20.003906 -23.210938 18.671875 -24.046875 C 17.347656 -24.878906 15.738281 -25.296875 13.84375 -25.296875 C 11.9375 -25.296875 10.457031 -24.941406 9.40625 -24.234375 C 8.351562 -23.523438 7.828125 -22.546875 7.828125 -21.296875 C 7.828125 -20.296875 8.179688 -19.507812 8.890625 -18.9375 C 9.597656 -18.375 10.519531 -17.941406 11.65625 -17.640625 C 12.800781 -17.347656 14.03125 -17.066406 15.34375 -16.796875 C 16.625 -16.546875 17.910156 -16.253906 19.203125 -15.921875 C 20.492188 -15.597656 21.675781 -15.144531 22.75 -14.5625 C 23.820312 -13.976562 24.675781 -13.179688 25.3125 -12.171875 C 25.957031 -11.171875 26.28125 -9.859375 26.28125 -8.234375 C 26.28125 -5.609375 25.320312 -3.492188 23.40625 -1.890625 C 21.488281 -0.285156 18.765625 0.515625 15.234375 0.515625 Z M 15.234375 0.515625 "/></g></g><g style="fill:#003b6f;fill-opacity:1;"><g transform="translate(866.256684, 495.402472)"><path style="stroke:none" d=""/></g></g><g style="fill:#003b6f;fill-opacity:1;"><g transform="translate(888.117058, 495.402472)"><path style="stroke:none" d="M 8.859375 0 L 4.09375 0 L 4.09375 -39.546875 L 29.640625 -39.546875 L 29.640625 -35.25 L 8.859375 -35.25 L 8.859375 -21.96875 L 27.203125 -21.96875 L 27.203125 -17.71875 L 8.859375 -17.71875 Z M 8.859375 0 "/></g></g><g style="fill:#003b6f;fill-opacity:1;"><g transform="translate(926.599802, 495.402472)"><path style="stroke:none" d="M 11.8125 0.515625 C 8.945312 0.515625 6.675781 -0.207031 5 -1.65625 C 3.320312 -3.101562 2.484375 -5.09375 2.484375 -7.625 C 2.484375 -10.101562 3.414062 -12.070312 5.28125 -13.53125 C 6.800781 -14.738281 9 -15.632812 11.875 -16.21875 L 22.078125 -18.1875 C 22.078125 -20.4375 21.488281 -22.148438 20.3125 -23.328125 C 19 -24.640625 17.238281 -25.296875 15.03125 -25.296875 C 13.269531 -25.296875 11.738281 -24.828125 10.4375 -23.890625 C 9.144531 -22.960938 8.328125 -21.6875 7.984375 -20.0625 L 3.578125 -20.0625 C 3.921875 -22.0625 4.65625 -23.734375 5.78125 -25.078125 C 6.90625 -26.429688 8.273438 -27.453125 9.890625 -28.140625 C 11.515625 -28.828125 13.242188 -29.171875 15.078125 -29.171875 C 16.734375 -29.171875 18.296875 -28.929688 19.765625 -28.453125 C 21.234375 -27.972656 22.472656 -27.226562 23.484375 -26.21875 C 24.484375 -25.257812 25.1875 -24.171875 25.59375 -22.953125 C 26.007812 -21.742188 26.257812 -20.59375 26.34375 -19.5 C 26.4375 -18.414062 26.484375 -17.546875 26.484375 -16.890625 L 26.484375 0 L 22.078125 0 L 22.078125 -4.515625 C 21.078125 -3.054688 19.921875 -1.929688 18.609375 -1.140625 C 17.640625 -0.554688 16.59375 -0.132812 15.46875 0.125 C 14.34375 0.382812 13.125 0.515625 11.8125 0.515625 Z M 12.328125 -3.375 C 14.097656 -3.375 15.617188 -3.703125 16.890625 -4.359375 C 18.929688 -5.421875 20.3125 -6.800781 21.03125 -8.5 C 21.757812 -10.195312 22.125 -12.234375 22.125 -14.609375 L 12.796875 -12.75 C 10.660156 -12.332031 9.085938 -11.660156 8.078125 -10.734375 C 7.285156 -9.929688 6.890625 -8.925781 6.890625 -7.71875 C 6.890625 -6.40625 7.378906 -5.351562 8.359375 -4.5625 C 9.347656 -3.769531 10.671875 -3.375 12.328125 -3.375 Z M 12.328125 -3.375 "/></g></g><g style="fill:#003b6f;fill-opacity:1;"><g transform="translate(963.787966, 495.402472)"><path style="stroke:none" d="M 15.234375 0.515625 C 11.578125 0.515625 8.613281 -0.351562 6.34375 -2.09375 C 4.082031 -3.84375 2.710938 -6.21875 2.234375 -9.21875 L 6.84375 -9.21875 C 7.21875 -7.5 8.078125 -6.09375 9.421875 -5 C 10.773438 -3.914062 12.734375 -3.375 15.296875 -3.375 C 17.222656 -3.375 18.800781 -3.742188 20.03125 -4.484375 C 21.257812 -5.222656 21.875 -6.320312 21.875 -7.78125 C 21.875 -8.988281 21.492188 -9.921875 20.734375 -10.578125 C 19.972656 -11.234375 18.976562 -11.734375 17.75 -12.078125 C 16.519531 -12.421875 15.195312 -12.734375 13.78125 -13.015625 C 12.539062 -13.253906 11.304688 -13.523438 10.078125 -13.828125 C 8.847656 -14.140625 7.734375 -14.570312 6.734375 -15.125 C 5.734375 -15.6875 4.929688 -16.429688 4.328125 -17.359375 C 3.722656 -18.296875 3.421875 -19.488281 3.421875 -20.9375 C 3.421875 -22.738281 3.878906 -24.25 4.796875 -25.46875 C 5.710938 -26.695312 6.960938 -27.617188 8.546875 -28.234375 C 10.140625 -28.859375 11.90625 -29.171875 13.84375 -29.171875 C 16.945312 -29.171875 19.535156 -28.367188 21.609375 -26.765625 C 23.679688 -25.160156 24.960938 -22.925781 25.453125 -20.0625 L 21.359375 -20.0625 C 20.898438 -21.882812 20.003906 -23.210938 18.671875 -24.046875 C 17.347656 -24.878906 15.738281 -25.296875 13.84375 -25.296875 C 11.9375 -25.296875 10.457031 -24.941406 9.40625 -24.234375 C 8.351562 -23.523438 7.828125 -22.546875 7.828125 -21.296875 C 7.828125 -20.296875 8.179688 -19.507812 8.890625 -18.9375 C 9.597656 -18.375 10.519531 -17.941406 11.65625 -17.640625 C 12.800781 -17.347656 14.03125 -17.066406 15.34375 -16.796875 C 16.625 -16.546875 17.910156 -16.253906 19.203125 -15.921875 C 20.492188 -15.597656 21.675781 -15.144531 22.75 -14.5625 C 23.820312 -13.976562 24.675781 -13.179688 25.3125 -12.171875 C 25.957031 -11.171875 26.28125 -9.859375 26.28125 -8.234375 C 26.28125 -5.609375 25.320312 -3.492188 23.40625 -1.890625 C 21.488281 -0.285156 18.765625 0.515625 15.234375 0.515625 Z M 15.234375 0.515625 "/></g></g><g style="fill:#003b6f;fill-opacity:1;"><g transform="translate(999.992241, 495.402472)"><path style="stroke:none" d="M 16.796875 0 L 12.796875 0 C 11.378906 0 10.160156 -0.195312 9.140625 -0.59375 C 8.128906 -0.988281 7.351562 -1.710938 6.8125 -2.765625 C 6.28125 -3.828125 6.015625 -5.304688 6.015625 -7.203125 L 6.015625 -24.78125 L 1.40625 -24.78125 L 1.40625 -28.65625 L 6.015625 -28.65625 L 6.015625 -39.546875 L 10.421875 -39.546875 L 10.421875 -28.65625 L 16.84375 -28.65625 L 16.84375 -24.78125 L 10.421875 -24.78125 L 10.421875 -8.078125 C 10.421875 -7.253906 10.476562 -6.519531 10.59375 -5.875 C 10.71875 -5.238281 11.019531 -4.75 11.5 -4.40625 C 11.988281 -4.0625 12.769531 -3.890625 13.84375 -3.890625 L 16.796875 -3.890625 Z M 16.796875 0 "/></g></g><g style="fill:#003b6f;fill-opacity:1;"><g transform="translate(1026.047052, 495.402472)"><path style="stroke:none" d="M 16.421875 0.515625 C 13.691406 0.515625 11.273438 -0.128906 9.171875 -1.421875 C 7.066406 -2.722656 5.425781 -4.484375 4.25 -6.703125 C 3.070312 -8.929688 2.484375 -11.445312 2.484375 -14.25 C 2.484375 -16.84375 3.019531 -19.28125 4.09375 -21.5625 C 5.164062 -23.84375 6.738281 -25.679688 8.8125 -27.078125 C 10.882812 -28.472656 13.390625 -29.171875 16.328125 -29.171875 C 18.742188 -29.171875 20.992188 -28.632812 23.078125 -27.5625 C 25.171875 -26.5 26.875 -24.910156 28.1875 -22.796875 C 29.5 -20.691406 30.15625 -18.101562 30.15625 -15.03125 L 30.15625 -13.46875 L 6.84375 -13.46875 C 6.90625 -12.46875 7.09375 -11.519531 7.40625 -10.625 C 8.132812 -8.414062 9.289062 -6.65625 10.875 -5.34375 C 12.46875 -4.03125 14.300781 -3.375 16.375 -3.375 C 18.550781 -3.375 20.363281 -3.953125 21.8125 -5.109375 C 23.269531 -6.265625 24.304688 -7.632812 24.921875 -9.21875 L 29.640625 -9.21875 C 29.054688 -7.425781 28.175781 -5.796875 27 -4.328125 C 25.820312 -2.859375 24.359375 -1.679688 22.609375 -0.796875 C 20.867188 0.078125 18.804688 0.515625 16.421875 0.515625 Z M 7.25 -17.359375 L 25.453125 -17.359375 C 25.410156 -17.847656 25.335938 -18.332031 25.234375 -18.8125 C 25.128906 -19.300781 24.992188 -19.75 24.828125 -20.15625 C 24.066406 -21.820312 22.929688 -23.09375 21.421875 -23.96875 C 19.921875 -24.851562 18.253906 -25.296875 16.421875 -25.296875 C 14.523438 -25.296875 12.859375 -24.84375 11.421875 -23.9375 C 9.992188 -23.039062 8.878906 -21.78125 8.078125 -20.15625 C 7.878906 -19.707031 7.707031 -19.238281 7.5625 -18.75 C 7.425781 -18.269531 7.320312 -17.804688 7.25 -17.359375 Z M 7.25 -17.359375 "/></g></g><g style="fill:#003b6f;fill-opacity:1;"><g transform="translate(1065.979697, 495.402472)"><path style="stroke:none" d="M 8.078125 0 L 3.6875 0 L 3.6875 -28.65625 L 8.078125 -28.65625 L 8.078125 -24.71875 C 9.390625 -26.34375 10.796875 -27.488281 12.296875 -28.15625 C 13.804688 -28.832031 15.53125 -29.171875 17.46875 -29.171875 L 17.671875 -29.171875 L 17.671875 -24.78125 L 16.171875 -24.78125 C 13.859375 -24.78125 12.007812 -24.085938 10.625 -22.703125 C 9.789062 -21.910156 9.15625 -20.890625 8.71875 -19.640625 C 8.289062 -18.398438 8.078125 -16.878906 8.078125 -15.078125 Z M 8.078125 0 "/></g></g><g style="fill:#003b6f;fill-opacity:1;"><g transform="translate(1092.138071, 495.402472)"><path style="stroke:none" d=""/></g></g><g style="fill:#003b6f;fill-opacity:1;"><g transform="translate(1113.998445, 495.402472)"><path style="stroke:none" d="M 8.859375 0 L 4.09375 0 L 4.09375 -39.546875 L 8.859375 -39.546875 L 8.859375 -22.03125 L 28.65625 -22.03125 L 28.65625 -39.546875 L 33.421875 -39.546875 L 33.421875 0 L 28.65625 0 L 28.65625 -17.78125 L 8.859375 -17.78125 Z M 8.859375 0 "/></g></g><g style="fill:#003b6f;fill-opacity:1;"><g transform="translate(1158.902285, 495.402472)"><path style="stroke:none" d="M 5.90625 -33.578125 C 4.976562 -33.578125 4.1875 -33.894531 3.53125 -34.53125 C 2.875 -35.175781 2.546875 -35.945312 2.546875 -36.84375 C 2.546875 -37.75 2.875 -38.507812 3.53125 -39.125 C 4.1875 -39.75 4.976562 -40.0625 5.90625 -40.0625 C 6.84375 -40.0625 7.640625 -39.75 8.296875 -39.125 C 8.953125 -38.507812 9.28125 -37.75 9.28125 -36.84375 C 9.28125 -35.945312 8.953125 -35.175781 8.296875 -34.53125 C 7.640625 -33.894531 6.84375 -33.578125 5.90625 -33.578125 Z M 8.078125 0 L 3.6875 0 L 3.6875 -28.65625 L 8.078125 -28.65625 Z M 8.078125 0 "/></g></g><g style="fill:#003b6f;fill-opacity:1;"><g transform="translate(1178.018178, 495.402472)"><path style="stroke:none" d="M 8.078125 0 L 3.6875 0 L 3.6875 -28.65625 L 8.078125 -28.65625 L 8.078125 -24.71875 C 9.390625 -26.34375 10.796875 -27.488281 12.296875 -28.15625 C 13.804688 -28.832031 15.53125 -29.171875 17.46875 -29.171875 L 17.671875 -29.171875 L 17.671875 -24.78125 L 16.171875 -24.78125 C 13.859375 -24.78125 12.007812 -24.085938 10.625 -22.703125 C 9.789062 -21.910156 9.15625 -20.890625 8.71875 -19.640625 C 8.289062 -18.398438 8.078125 -16.878906 8.078125 -15.078125 Z M 8.078125 0 "/></g></g><g style="fill:#003b6f;fill-opacity:1;"><g transform="translate(1204.176552, 495.402472)"><path style="stroke:none" d="M 16.421875 0.515625 C 13.691406 0.515625 11.273438 -0.128906 9.171875 -1.421875 C 7.066406 -2.722656 5.425781 -4.484375 4.25 -6.703125 C 3.070312 -8.929688 2.484375 -11.445312 2.484375 -14.25 C 2.484375 -16.84375 3.019531 -19.28125 4.09375 -21.5625 C 5.164062 -23.84375 6.738281 -25.679688 8.8125 -27.078125 C 10.882812 -28.472656 13.390625 -29.171875 16.328125 -29.171875 C 18.742188 -29.171875 20.992188 -28.632812 23.078125 -27.5625 C 25.171875 -26.5 26.875 -24.910156 28.1875 -22.796875 C 29.5 -20.691406 30.15625 -18.101562 30.15625 -15.03125 L 30.15625 -13.46875 L 6.84375 -13.46875 C 6.90625 -12.46875 7.09375 -11.519531 7.40625 -10.625 C 8.132812 -8.414062 9.289062 -6.65625 10.875 -5.34375 C 12.46875 -4.03125 14.300781 -3.375 16.375 -3.375 C 18.550781 -3.375 20.363281 -3.953125 21.8125 -5.109375 C 23.269531 -6.265625 24.304688 -7.632812 24.921875 -9.21875 L 29.640625 -9.21875 C 29.054688 -7.425781 28.175781 -5.796875 27 -4.328125 C 25.820312 -2.859375 24.359375 -1.679688 22.609375 -0.796875 C 20.867188 0.078125 18.804688 0.515625 16.421875 0.515625 Z M 7.25 -17.359375 L 25.453125 -17.359375 C 25.410156 -17.847656 25.335938 -18.332031 25.234375 -18.8125 C 25.128906 -19.300781 24.992188 -19.75 24.828125 -20.15625 C 24.066406 -21.820312 22.929688 -23.09375 21.421875 -23.96875 C 19.921875 -24.851562 18.253906 -25.296875 16.421875 -25.296875 C 14.523438 -25.296875 12.859375 -24.84375 11.421875 -23.9375 C 9.992188 -23.039062 8.878906 -21.78125 8.078125 -20.15625 C 7.878906 -19.707031 7.707031 -19.238281 7.5625 -18.75 C 7.425781 -18.269531 7.320312 -17.804688 7.25 -17.359375 Z M 7.25 -17.359375 "/></g></g><g style="fill:#003b6f;fill-opacity:1;"><g transform="translate(1244.109197, 495.402472)"><path style="stroke:none" d="M 15.234375 0.515625 C 11.578125 0.515625 8.613281 -0.351562 6.34375 -2.09375 C 4.082031 -3.84375 2.710938 -6.21875 2.234375 -9.21875 L 6.84375 -9.21875 C 7.21875 -7.5 8.078125 -6.09375 9.421875 -5 C 10.773438 -3.914062 12.734375 -3.375 15.296875 -3.375 C 17.222656 -3.375 18.800781 -3.742188 20.03125 -4.484375 C 21.257812 -5.222656 21.875 -6.320312 21.875 -7.78125 C 21.875 -8.988281 21.492188 -9.921875 20.734375 -10.578125 C 19.972656 -11.234375 18.976562 -11.734375 17.75 -12.078125 C 16.519531 -12.421875 15.195312 -12.734375 13.78125 -13.015625 C 12.539062 -13.253906 11.304688 -13.523438 10.078125 -13.828125 C 8.847656 -14.140625 7.734375 -14.570312 6.734375 -15.125 C 5.734375 -15.6875 4.929688 -16.429688 4.328125 -17.359375 C 3.722656 -18.296875 3.421875 -19.488281 3.421875 -20.9375 C 3.421875 -22.738281 3.878906 -24.25 4.796875 -25.46875 C 5.710938 -26.695312 6.960938 -27.617188 8.546875 -28.234375 C 10.140625 -28.859375 11.90625 -29.171875 13.84375 -29.171875 C 16.945312 -29.171875 19.535156 -28.367188 21.609375 -26.765625 C 23.679688 -25.160156 24.960938 -22.925781 25.453125 -20.0625 L 21.359375 -20.0625 C 20.898438 -21.882812 20.003906 -23.210938 18.671875 -24.046875 C 17.347656 -24.878906 15.738281 -25.296875 13.84375 -25.296875 C 11.9375 -25.296875 10.457031 -24.941406 9.40625 -24.234375 C 8.351562 -23.523438 7.828125 -22.546875 7.828125 -21.296875 C 7.828125 -20.296875 8.179688 -19.507812 8.890625 -18.9375 C 9.597656 -18.375 10.519531 -17.941406 11.65625 -17.640625 C 12.800781 -17.347656 14.03125 -17.066406 15.34375 -16.796875 C 16.625 -16.546875 17.910156 -16.253906 19.203125 -15.921875 C 20.492188 -15.597656 21.675781 -15.144531 22.75 -14.5625 C 23.820312 -13.976562 24.675781 -13.179688 25.3125 -12.171875 C 25.957031 -11.171875 26.28125 -9.859375 26.28125 -8.234375 C 26.28125 -5.609375 25.320312 -3.492188 23.40625 -1.890625 C 21.488281 -0.285156 18.765625 0.515625 15.234375 0.515625 Z M 15.234375 0.515625 "/></g></g><path style=" stroke:none;fill-rule:nonzero;fill:#003b6e;fill-opacity:1;" d="M 879.96875 78.875 C 870.410156 69.34375 854.011719 76.117188 854.011719 89.59375 C 854.011719 103.09375 870.417969 109.867188 879.96875 100.335938 C 885.90625 94.410156 885.90625 84.800781 879.96875 78.875 Z M 857.28125 30.511719 C 847.734375 20.980469 831.328125 27.753906 831.328125 41.253906 C 831.328125 54.734375 847.734375 61.511719 857.28125 51.976562 C 863.222656 46.046875 863.222656 36.4375 857.28125 30.511719 Z M 857.28125 267.230469 C 847.710938 257.679688 831.328125 264.492188 831.328125 277.953125 C 831.328125 282.160156 833.03125 285.957031 835.773438 288.695312 C 841.921875 294.679688 851.382812 294.582031 857.28125 288.695312 L 857.304688 288.695312 C 863.261719 282.558594 863.203125 273.136719 857.28125 267.230469 Z M 888.003906 148.871094 C 878.453125 139.339844 862.027344 146.113281 862.027344 159.613281 C 862.027344 173.089844 878.445312 179.871094 888.003906 170.335938 C 893.949219 164.40625 893.949219 154.796875 888.003906 148.871094 Z M 883.976562 218.867188 C 874.429688 209.339844 858.003906 216.113281 858.003906 229.609375 C 858.003906 243.089844 874.421875 249.867188 883.976562 240.332031 C 889.917969 234.40625 889.917969 224.796875 883.976562 218.867188 Z M 783.089844 192.515625 L 829.253906 192.515625 C 830.179688 192.515625 831.027344 192.898438 831.636719 193.515625 L 853.320312 215.152344 C 856.441406 218.25 851.710938 222.972656 848.605469 219.875 L 827.871094 199.183594 L 783.089844 199.183594 L 783.089844 274.789062 L 823.800781 274.789062 C 828.207031 274.789062 828.207031 281.453125 823.800781 281.453125 L 779.738281 281.453125 C 777.90625 281.453125 776.410156 279.964844 776.410156 278.113281 L 776.410156 41.378906 C 776.410156 39.550781 777.90625 38.058594 779.738281 38.058594 L 823.800781 38.058594 C 828.207031 38.058594 828.207031 44.722656 823.800781 44.722656 L 783.089844 44.722656 L 783.089844 120.140625 L 827.871094 120.140625 L 848.605469 99.449219 C 851.710938 96.355469 856.441406 101.054688 853.320312 104.152344 L 831.636719 125.800781 C 831.027344 126.410156 830.179688 126.800781 829.253906 126.800781 L 783.089844 126.800781 L 783.089844 156.421875 L 854.527344 156.421875 C 858.917969 156.421875 858.917969 163.089844 854.527344 163.089844 L 783.089844 163.089844 Z M 737.554688 119.003906 C 733.164062 119.003906 733.164062 112.335938 737.554688 112.335938 L 779.738281 112.335938 C 784.132812 112.335938 784.132812 119.003906 779.738281 119.003906 Z M 779.738281 200.503906 C 784.132812 200.503906 784.132812 207.167969 779.738281 207.167969 L 737.554688 207.167969 C 733.164062 207.167969 733.164062 200.503906 737.554688 200.503906 Z M 779.738281 200.503906 "/><path style=" stroke:none;fill-rule:evenodd;fill:#08a6d0;fill-opacity:1;" d="M 629.792969 209.03125 C 629.867188 208.960938 629.945312 208.898438 630 208.828125 C 635.671875 203.3125 643.507812 199.988281 651.394531 199.484375 C 654.894531 199.277344 654.550781 193.96875 651.054688 194.175781 C 642.464844 194.722656 634.257812 198.085938 627.730469 203.707031 L 627.445312 203.972656 L 627.082031 203.839844 C 611.851562 198.644531 601.222656 185.832031 598.6875 170.007812 C 597.492188 162.589844 598.191406 154.925781 600.839844 147.886719 C 603.65625 140.375 608.503906 133.972656 614.875 129.117188 L 615.484375 128.667969 L 615.863281 129.304688 C 620.027344 136.085938 626.230469 141.519531 633.515625 144.730469 C 634.859375 145.316406 636.445312 144.6875 637.035156 143.371094 C 637.621094 142.03125 637.015625 140.445312 635.671875 139.859375 C 628.597656 136.746094 623 131.351562 619.308594 124.609375 C 615.675781 117.984375 614.050781 110.300781 614.503906 102.765625 C 615.789062 81.136719 633.785156 64.253906 655.5 64.296875 L 656.046875 64.296875 L 656.160156 64.839844 C 657.65625 73.011719 661.707031 80.511719 667.738281 86.246094 C 670.257812 88.644531 673.925781 84.8125 671.390625 82.394531 C 665.679688 76.960938 662.027344 69.691406 661.078125 61.859375 L 661.078125 61.710938 C 662.515625 50.816406 668.152344 41.039062 676.855469 34.339844 C 681.054688 31.089844 685.859375 28.679688 690.972656 27.222656 C 696.269531 25.730469 701.789062 25.316406 707.261719 25.996094 C 721.316406 27.714844 731.667969 39.34375 731.667969 53.480469 L 731.667969 260.511719 C 731.667969 273.835938 724.367188 285.183594 712.199219 290.710938 C 703.878906 294.527344 694.589844 294.828125 686.074219 291.410156 C 677.75 288.066406 671.144531 281.535156 667.417969 273.402344 C 665.542969 269.308594 664.488281 264.90625 664.242188 260.417969 L 664.242188 260.3125 C 664.714844 256.515625 665.8125 252.820312 667.511719 249.363281 C 669.273438 245.792969 671.675781 242.550781 674.546875 239.8125 C 677.082031 237.394531 673.414062 233.566406 670.875 235.964844 C 664.648438 241.890625 660.527344 249.710938 659.164062 258.199219 L 659.089844 258.601562 L 658.710938 258.734375 C 648.945312 261.996094 638.449219 260.019531 630.558594 253.425781 C 622.652344 246.859375 618.792969 236.851562 620.269531 226.695312 C 621.269531 219.882812 624.621094 213.648438 629.765625 209.058594 L 629.765625 209.039062 L 629.792969 209.039062 Z M 654.785156 121.046875 C 647.578125 117.726562 639.390625 117.292969 631.875 119.800781 C 628.542969 120.914062 630.226562 125.9375 633.558594 124.84375 C 640.878906 122.386719 649.054688 123.390625 655.582031 127.507812 L 655.808594 127.660156 L 655.859375 127.945312 C 656.035156 128.6875 656.222656 129.398438 656.429688 130.117188 C 659.664062 140.460938 670.460938 149.636719 678.9375 155.738281 L 678.957031 155.757812 L 678.980469 155.757812 C 679.050781 155.832031 679.132812 155.890625 679.226562 155.945312 C 687.703125 161.378906 696.136719 167.929688 702.550781 175.75 L 702.738281 175.976562 L 702.699219 176.261719 C 702.171875 180.882812 700.160156 184.757812 695.777344 186.683594 C 689.535156 189.421875 680.414062 188.0625 674 186.628906 C 670.597656 185.878906 669.441406 191.066406 672.84375 191.824219 C 679.21875 193.222656 686.632812 194.203125 693.105469 192.996094 C 699.140625 191.863281 703.945312 188.902344 706.429688 183.109375 L 706.957031 181.882812 L 707.617188 183.035156 C 712.648438 191.773438 714.296875 201.0625 712.0625 210.917969 C 711.304688 214.332031 716.484375 215.484375 717.265625 212.089844 C 719.835938 200.667969 717.875 189.945312 711.949219 179.945312 C 706.253906 170.316406 697.53125 162.328125 688.507812 155.835938 L 688.109375 155.550781 L 688.261719 155.097656 C 690.25 148.738281 696.984375 145.148438 703.398438 147.019531 C 706.75 148 708.222656 142.902344 704.875 141.925781 C 696.398438 139.46875 687.394531 143.625 683.855469 151.703125 L 683.535156 152.421875 L 682.082031 151.476562 L 682.0625 151.476562 C 674.605469 146.09375 664.375 137.675781 661.519531 128.578125 C 659.230469 121.199219 662.789062 115.101562 668.253906 110.304688 C 669.347656 109.339844 669.460938 107.664062 668.480469 106.550781 C 667.511719 105.457031 665.832031 105.34375 664.714844 106.324219 C 660.425781 110.097656 656.734375 114.835938 655.714844 120.59375 L 655.558594 121.449219 Z M 654.785156 121.046875 "/></g></svg>